<svg xmlns="http://www.w3.org/2000/svg" viewBox="0 0 640 320" width="640" height="320">
<rect width="100%" height="100%" fill="#141414"/>
<line x1="89.6" y1="12.8" x2="89.6" y2="288" stroke="#2c2c2c" stroke-width="1"/>
<text x="89.6" y="300" text-anchor="middle" font-size="12" font-family="monospace" fill="#626262">0</text>
<line x1="198.933" y1="12.8" x2="198.933" y2="288" stroke="#2c2c2c" stroke-width="1"/>
<text x="198.933" y="300" text-anchor="middle" font-size="12" font-family="monospace" fill="#626262">2.5</text>
<line x1="308.267" y1="12.8" x2="308.267" y2="288" stroke="#2c2c2c" stroke-width="1"/>
<text x="308.267" y="300" text-anchor="middle" font-size="12" font-family="monospace" fill="#626262">5</text>
<line x1="417.6" y1="12.8" x2="417.6" y2="288" stroke="#2c2c2c" stroke-width="1"/>
<text x="417.6" y="300" text-anchor="middle" font-size="12" font-family="monospace" fill="#626262">7.5</text>
<line x1="526.933" y1="12.8" x2="526.933" y2="288" stroke="#2c2c2c" stroke-width="1"/>
<text x="526.933" y="300" text-anchor="middle" font-size="12" font-family="monospace" fill="#626262">10</text>
<line x1="614.4" y1="12.8" x2="614.4" y2="288" stroke="#2c2c2c" stroke-width="1"/>
<text x="614.4" y="300" text-anchor="middle" font-size="12" font-family="monospace" fill="#626262">12.5</text>
<rect x="133.333" y="46.7" width="87.467" height="1" fill="#626262"/>
<rect x="395.733" y="46.7" width="87.467" height="1" fill="#626262"/>
<rect x="132.833" y="36.88" width="1" height="20.64" fill="#626262"/>
<rect x="482.7" y="36.88" width="1" height="20.64" fill="#626262"/>
<rect x="220.8" y="26.56" width="174.933" height="41.28" fill="#e69f00" fill-opacity="0.35" stroke="#e69f00" stroke-width="1.5"/>
<rect x="308.267" y="26.56" width="0.5" height="41.28" fill="#e69f00"/>
<rect x="177.067" y="115.5" width="87.467" height="1" fill="#626262"/>
<rect x="439.467" y="115.5" width="87.467" height="1" fill="#626262"/>
<rect x="176.567" y="105.68" width="1" height="20.64" fill="#626262"/>
<rect x="526.433" y="105.68" width="1" height="20.64" fill="#626262"/>
<rect x="264.533" y="95.36" width="174.933" height="41.28" fill="#56b4e9" fill-opacity="0.35" stroke="#56b4e9" stroke-width="1.5"/>
<rect x="352" y="95.36" width="0.5" height="41.28" fill="#56b4e9"/>
<circle cx="614.4" cy="116" r="4.541" fill="#56b4e9"/>
<rect x="89.6" y="184.3" width="87.467" height="1" fill="#626262"/>
<rect x="352" y="184.3" width="87.467" height="1" fill="#626262"/>
<rect x="89.1" y="174.48" width="1" height="20.64" fill="#626262"/>
<rect x="438.967" y="174.48" width="1" height="20.64" fill="#626262"/>
<rect x="177.067" y="164.16" width="174.933" height="41.28" fill="#3cbf9a" fill-opacity="0.35" stroke="#3cbf9a" stroke-width="1.5"/>
<rect x="264.533" y="164.16" width="0.5" height="41.28" fill="#3cbf9a"/>
<rect x="220.8" y="253.1" width="87.467" height="1" fill="#626262"/>
<rect x="483.2" y="253.1" width="87.467" height="1" fill="#626262"/>
<rect x="220.3" y="243.28" width="1" height="20.64" fill="#626262"/>
<rect x="570.167" y="243.28" width="1" height="20.64" fill="#626262"/>
<rect x="308.267" y="232.96" width="174.933" height="41.28" fill="#f0e442" fill-opacity="0.35" stroke="#f0e442" stroke-width="1.5"/>
<rect x="395.733" y="232.96" width="0.5" height="41.28" fill="#f0e442"/>
</svg>
