<svg xmlns="http://www.w3.org/2000/svg" viewBox="0 0 640 320" width="640" height="320">
<rect width="100%" height="100%" fill="#141414"/>
<line x1="89.6" y1="288" x2="614.4" y2="288" stroke="#2c2c2c" stroke-width="1"/>
<text x="83.6" y="292" text-anchor="end" font-size="12" font-family="monospace" fill="#626262">0</text>
<line x1="89.6" y1="150.4" x2="614.4" y2="150.4" stroke="#2c2c2c" stroke-width="1"/>
<text x="83.6" y="154.4" text-anchor="end" font-size="12" font-family="monospace" fill="#626262">50</text>
<line x1="89.6" y1="12.8" x2="614.4" y2="12.8" stroke="#2c2c2c" stroke-width="1"/>
<text x="83.6" y="16.8" text-anchor="end" font-size="12" font-family="monospace" fill="#626262">100</text>
<rect x="89.994" y="109.279" width="1.837" height="178.721" fill="#e69f00"/>
<rect x="92.618" y="183.949" width="1.837" height="104.051" fill="#e69f00"/>
<rect x="95.242" y="179.5" width="1.837" height="108.5" fill="#e69f00"/>
<rect x="97.866" y="122.221" width="1.837" height="165.779" fill="#e69f00"/>
<rect x="100.49" y="160.045" width="1.837" height="127.955" fill="#e69f00"/>
<rect x="103.114" y="89.571" width="1.837" height="198.429" fill="#e69f00"/>
<rect x="105.738" y="217.589" width="1.837" height="70.411" fill="#e69f00"/>
<rect x="108.362" y="226.395" width="1.837" height="61.605" fill="#e69f00"/>
<rect x="110.986" y="201.421" width="1.837" height="86.579" fill="#e69f00"/>
<rect x="113.61" y="176.849" width="1.837" height="111.151" fill="#e69f00"/>
<rect x="116.234" y="147.027" width="1.837" height="140.973" fill="#e69f00"/>
<rect x="118.858" y="84.044" width="1.837" height="203.956" fill="#e69f00"/>
<rect x="121.482" y="116.822" width="1.837" height="171.178" fill="#e69f00"/>
<rect x="124.106" y="244.34" width="1.837" height="43.66" fill="#e69f00"/>
<rect x="126.73" y="118.726" width="1.837" height="169.274" fill="#e69f00"/>
<rect x="129.354" y="82.475" width="1.837" height="205.525" fill="#e69f00"/>
<rect x="131.978" y="228.409" width="1.837" height="59.591" fill="#e69f00"/>
<rect x="134.602" y="129.301" width="1.837" height="158.699" fill="#e69f00"/>
<rect x="137.226" y="179.356" width="1.837" height="108.644" fill="#e69f00"/>
<rect x="139.85" y="144.379" width="1.837" height="143.621" fill="#e69f00"/>
<rect x="142.474" y="102.234" width="1.837" height="185.766" fill="#e69f00"/>
<rect x="145.098" y="129.354" width="1.837" height="158.646" fill="#e69f00"/>
<rect x="147.722" y="152.846" width="1.837" height="135.154" fill="#e69f00"/>
<rect x="150.346" y="126.769" width="1.837" height="161.231" fill="#e69f00"/>
<rect x="152.97" y="138.6" width="1.837" height="149.4" fill="#e69f00"/>
<rect x="155.594" y="209.097" width="1.837" height="78.903" fill="#e69f00"/>
<rect x="158.218" y="114.552" width="1.837" height="173.448" fill="#e69f00"/>
<rect x="160.842" y="140.829" width="1.837" height="147.171" fill="#e69f00"/>
<rect x="163.466" y="186.128" width="1.837" height="101.872" fill="#e69f00"/>
<rect x="166.09" y="161.385" width="1.837" height="126.615" fill="#e69f00"/>
<rect x="168.714" y="161.968" width="1.837" height="126.032" fill="#e69f00"/>
<rect x="171.338" y="86.046" width="1.837" height="201.954" fill="#e69f00"/>
<rect x="173.962" y="218.677" width="1.837" height="69.323" fill="#e69f00"/>
<rect x="176.586" y="203.212" width="1.837" height="84.788" fill="#e69f00"/>
<rect x="179.21" y="182.468" width="1.837" height="105.532" fill="#e69f00"/>
<rect x="181.834" y="80.33" width="1.837" height="207.67" fill="#e69f00"/>
<rect x="184.458" y="168.119" width="1.837" height="119.881" fill="#e69f00"/>
<rect x="187.082" y="113.34" width="1.837" height="174.66" fill="#e69f00"/>
<rect x="189.706" y="133.156" width="1.837" height="154.844" fill="#e69f00"/>
<rect x="192.33" y="105.228" width="1.837" height="182.772" fill="#e69f00"/>
<rect x="194.954" y="125.732" width="1.837" height="162.268" fill="#e69f00"/>
<rect x="197.578" y="154.06" width="1.837" height="133.94" fill="#e69f00"/>
<rect x="200.202" y="129.875" width="1.837" height="158.125" fill="#e69f00"/>
<rect x="202.826" y="99.959" width="1.837" height="188.041" fill="#e69f00"/>
<rect x="205.45" y="67.336" width="1.837" height="220.664" fill="#e69f00"/>
<rect x="208.074" y="174.866" width="1.837" height="113.134" fill="#e69f00"/>
<rect x="210.698" y="213.396" width="1.837" height="74.604" fill="#e69f00"/>
<rect x="213.322" y="104.887" width="1.837" height="183.113" fill="#e69f00"/>
<rect x="215.946" y="157.038" width="1.837" height="130.962" fill="#e69f00"/>
<rect x="218.57" y="126.924" width="1.837" height="161.076" fill="#e69f00"/>
<rect x="221.194" y="145.325" width="1.837" height="142.675" fill="#e69f00"/>
<rect x="223.818" y="191.111" width="1.837" height="96.889" fill="#e69f00"/>
<rect x="226.442" y="168.018" width="1.837" height="119.982" fill="#e69f00"/>
<rect x="229.066" y="135.116" width="1.837" height="152.884" fill="#e69f00"/>
<rect x="231.69" y="206.839" width="1.837" height="81.161" fill="#e69f00"/>
<rect x="234.314" y="116.661" width="1.837" height="171.339" fill="#e69f00"/>
<rect x="236.938" y="127.018" width="1.837" height="160.982" fill="#e69f00"/>
<rect x="239.562" y="205.019" width="1.837" height="82.981" fill="#e69f00"/>
<rect x="242.186" y="160.152" width="1.837" height="127.848" fill="#e69f00"/>
<rect x="244.81" y="182.954" width="1.837" height="105.046" fill="#e69f00"/>
<rect x="247.434" y="193.666" width="1.837" height="94.334" fill="#e69f00"/>
<rect x="250.058" y="141.738" width="1.837" height="146.262" fill="#e69f00"/>
<rect x="252.682" y="171.893" width="1.837" height="116.107" fill="#e69f00"/>
<rect x="255.306" y="94.984" width="1.837" height="193.016" fill="#e69f00"/>
<rect x="257.93" y="67.432" width="1.837" height="220.568" fill="#e69f00"/>
<rect x="260.554" y="85.636" width="1.837" height="202.364" fill="#e69f00"/>
<rect x="263.178" y="117.826" width="1.837" height="170.174" fill="#e69f00"/>
<rect x="265.802" y="215.766" width="1.837" height="72.234" fill="#e69f00"/>
<rect x="268.426" y="186.437" width="1.837" height="101.563" fill="#e69f00"/>
<rect x="271.05" y="229.309" width="1.837" height="58.691" fill="#e69f00"/>
<rect x="273.674" y="243.452" width="1.837" height="44.548" fill="#e69f00"/>
<rect x="276.298" y="130.574" width="1.837" height="157.426" fill="#e69f00"/>
<rect x="278.922" y="83.916" width="1.837" height="204.084" fill="#e69f00"/>
<rect x="281.546" y="80.465" width="1.837" height="207.535" fill="#e69f00"/>
<rect x="284.17" y="161.685" width="1.837" height="126.315" fill="#e69f00"/>
<rect x="286.794" y="142.168" width="1.837" height="145.832" fill="#e69f00"/>
<rect x="289.418" y="165.574" width="1.837" height="122.426" fill="#e69f00"/>
<rect x="292.042" y="220.395" width="1.837" height="67.605" fill="#e69f00"/>
<rect x="294.666" y="81.753" width="1.837" height="206.247" fill="#e69f00"/>
<rect x="297.29" y="93.708" width="1.837" height="194.292" fill="#e69f00"/>
<rect x="299.914" y="200.61" width="1.837" height="87.39" fill="#e69f00"/>
<rect x="302.538" y="125.814" width="1.837" height="162.186" fill="#e69f00"/>
<rect x="305.162" y="138.038" width="1.837" height="149.962" fill="#e69f00"/>
<rect x="307.786" y="148.267" width="1.837" height="139.733" fill="#e69f00"/>
<rect x="310.41" y="217.921" width="1.837" height="70.079" fill="#e69f00"/>
<rect x="313.034" y="133.572" width="1.837" height="154.428" fill="#e69f00"/>
<rect x="315.658" y="125.044" width="1.837" height="162.956" fill="#e69f00"/>
<rect x="318.282" y="160.124" width="1.837" height="127.876" fill="#e69f00"/>
<rect x="320.906" y="125.461" width="1.837" height="162.539" fill="#e69f00"/>
<rect x="323.53" y="144.874" width="1.837" height="143.126" fill="#e69f00"/>
<rect x="326.154" y="161.827" width="1.837" height="126.173" fill="#e69f00"/>
<rect x="328.778" y="151.188" width="1.837" height="136.812" fill="#e69f00"/>
<rect x="331.402" y="168.554" width="1.837" height="119.446" fill="#e69f00"/>
<rect x="334.026" y="66.334" width="1.837" height="221.666" fill="#e69f00"/>
<rect x="336.65" y="123.977" width="1.837" height="164.023" fill="#e69f00"/>
<rect x="339.274" y="193.762" width="1.837" height="94.238" fill="#e69f00"/>
<rect x="341.898" y="146.72" width="1.837" height="141.28" fill="#e69f00"/>
<rect x="344.522" y="139.774" width="1.837" height="148.226" fill="#e69f00"/>
<rect x="347.146" y="183.94" width="1.837" height="104.06" fill="#e69f00"/>
<rect x="349.77" y="68.316" width="1.837" height="219.684" fill="#e69f00"/>
<rect x="352.394" y="90.225" width="1.837" height="197.775" fill="#e69f00"/>
<rect x="355.018" y="183.819" width="1.837" height="104.181" fill="#e69f00"/>
<rect x="357.642" y="120.991" width="1.837" height="167.009" fill="#e69f00"/>
<rect x="360.266" y="128.356" width="1.837" height="159.644" fill="#e69f00"/>
<rect x="362.89" y="106.213" width="1.837" height="181.787" fill="#e69f00"/>
<rect x="365.514" y="201.374" width="1.837" height="86.626" fill="#e69f00"/>
<rect x="368.138" y="192.411" width="1.837" height="95.589" fill="#e69f00"/>
<rect x="370.762" y="99.558" width="1.837" height="188.442" fill="#e69f00"/>
<rect x="373.386" y="142.416" width="1.837" height="145.584" fill="#e69f00"/>
<rect x="376.01" y="160.712" width="1.837" height="127.288" fill="#e69f00"/>
<rect x="378.634" y="106.808" width="1.837" height="181.192" fill="#e69f00"/>
<rect x="381.258" y="150.629" width="1.837" height="137.371" fill="#e69f00"/>
<rect x="383.882" y="105.686" width="1.837" height="182.314" fill="#e69f00"/>
<rect x="386.506" y="166.892" width="1.837" height="121.108" fill="#e69f00"/>
<rect x="389.13" y="143.621" width="1.837" height="144.379" fill="#e69f00"/>
<rect x="391.754" y="149.428" width="1.837" height="138.572" fill="#e69f00"/>
<rect x="394.378" y="105.106" width="1.837" height="182.894" fill="#e69f00"/>
<rect x="397.002" y="160.434" width="1.837" height="127.566" fill="#e69f00"/>
<rect x="399.626" y="110.007" width="1.837" height="177.993" fill="#e69f00"/>
<rect x="402.25" y="104.995" width="1.837" height="183.005" fill="#e69f00"/>
<rect x="404.874" y="150.399" width="1.837" height="137.601" fill="#e69f00"/>
<rect x="407.498" y="204.368" width="1.837" height="83.632" fill="#e69f00"/>
<rect x="410.122" y="120.897" width="1.837" height="167.103" fill="#e69f00"/>
<rect x="412.746" y="168.319" width="1.837" height="119.681" fill="#e69f00"/>
<rect x="415.37" y="106.468" width="1.837" height="181.532" fill="#e69f00"/>
<rect x="417.994" y="114.35" width="1.837" height="173.65" fill="#e69f00"/>
<rect x="420.618" y="177.767" width="1.837" height="110.233" fill="#e69f00"/>
<rect x="423.242" y="266.06" width="1.837" height="21.94" fill="#e69f00"/>
<rect x="425.866" y="144.434" width="1.837" height="143.566" fill="#e69f00"/>
<rect x="428.49" y="162.033" width="1.837" height="125.967" fill="#e69f00"/>
<rect x="431.114" y="96.149" width="1.837" height="191.851" fill="#e69f00"/>
<rect x="433.738" y="112.004" width="1.837" height="175.996" fill="#e69f00"/>
<rect x="436.362" y="138.791" width="1.837" height="149.209" fill="#e69f00"/>
<rect x="438.986" y="162.819" width="1.837" height="125.181" fill="#e69f00"/>
<rect x="441.61" y="117.201" width="1.837" height="170.799" fill="#e69f00"/>
<rect x="444.234" y="141.192" width="1.837" height="146.808" fill="#e69f00"/>
<rect x="446.858" y="148.026" width="1.837" height="139.974" fill="#e69f00"/>
<rect x="449.482" y="125.961" width="1.837" height="162.039" fill="#e69f00"/>
<rect x="452.106" y="66.324" width="1.837" height="221.676" fill="#e69f00"/>
<rect x="454.73" y="135.829" width="1.837" height="152.171" fill="#e69f00"/>
<rect x="457.354" y="130.25" width="1.837" height="157.75" fill="#e69f00"/>
<rect x="459.978" y="58.826" width="1.837" height="229.174" fill="#e69f00"/>
<rect x="462.602" y="172.87" width="1.837" height="115.13" fill="#e69f00"/>
<rect x="465.226" y="60.758" width="1.837" height="227.242" fill="#e69f00"/>
<rect x="467.85" y="137.574" width="1.837" height="150.426" fill="#e69f00"/>
<rect x="470.474" y="207.775" width="1.837" height="80.225" fill="#e69f00"/>
<rect x="473.098" y="132.822" width="1.837" height="155.178" fill="#e69f00"/>
<rect x="475.722" y="120.81" width="1.837" height="167.19" fill="#e69f00"/>
<rect x="478.346" y="195.557" width="1.837" height="92.443" fill="#e69f00"/>
<rect x="480.97" y="184.452" width="1.837" height="103.548" fill="#e69f00"/>
<rect x="483.594" y="136.767" width="1.837" height="151.233" fill="#e69f00"/>
<rect x="486.218" y="121.697" width="1.837" height="166.303" fill="#e69f00"/>
<rect x="488.842" y="153.338" width="1.837" height="134.662" fill="#e69f00"/>
<rect x="491.466" y="198.203" width="1.837" height="89.797" fill="#e69f00"/>
<rect x="494.09" y="53.735" width="1.837" height="234.265" fill="#e69f00"/>
<rect x="496.714" y="72.858" width="1.837" height="215.142" fill="#e69f00"/>
<rect x="499.338" y="140.169" width="1.837" height="147.831" fill="#e69f00"/>
<rect x="501.962" y="120.192" width="1.837" height="167.808" fill="#e69f00"/>
<rect x="504.586" y="185.738" width="1.837" height="102.262" fill="#e69f00"/>
<rect x="507.21" y="201.346" width="1.837" height="86.654" fill="#e69f00"/>
<rect x="509.834" y="248.302" width="1.837" height="39.698" fill="#e69f00"/>
<rect x="512.458" y="156.848" width="1.837" height="131.152" fill="#e69f00"/>
<rect x="515.082" y="171.035" width="1.837" height="116.965" fill="#e69f00"/>
<rect x="517.706" y="177.749" width="1.837" height="110.251" fill="#e69f00"/>
<rect x="520.33" y="123.994" width="1.837" height="164.006" fill="#e69f00"/>
<rect x="522.954" y="140.913" width="1.837" height="147.087" fill="#e69f00"/>
<rect x="525.578" y="179.362" width="1.837" height="108.638" fill="#e69f00"/>
<rect x="528.202" y="177.112" width="1.837" height="110.888" fill="#e69f00"/>
<rect x="530.826" y="140.885" width="1.837" height="147.115" fill="#e69f00"/>
<rect x="533.45" y="220.172" width="1.837" height="67.828" fill="#e69f00"/>
<rect x="536.074" y="137.909" width="1.837" height="150.091" fill="#e69f00"/>
<rect x="538.698" y="126.749" width="1.837" height="161.251" fill="#e69f00"/>
<rect x="541.322" y="158.889" width="1.837" height="129.111" fill="#e69f00"/>
<rect x="543.946" y="195.873" width="1.837" height="92.127" fill="#e69f00"/>
<rect x="546.57" y="170.631" width="1.837" height="117.369" fill="#e69f00"/>
<rect x="549.194" y="156.148" width="1.837" height="131.852" fill="#e69f00"/>
<rect x="551.818" y="149.261" width="1.837" height="138.739" fill="#e69f00"/>
<rect x="554.442" y="204.251" width="1.837" height="83.749" fill="#e69f00"/>
<rect x="557.066" y="243.631" width="1.837" height="44.369" fill="#e69f00"/>
<rect x="559.69" y="145.144" width="1.837" height="142.856" fill="#e69f00"/>
<rect x="562.314" y="205.408" width="1.837" height="82.592" fill="#e69f00"/>
<rect x="564.938" y="68.257" width="1.837" height="219.743" fill="#e69f00"/>
<rect x="567.562" y="259.326" width="1.837" height="28.674" fill="#e69f00"/>
<rect x="570.186" y="82.347" width="1.837" height="205.653" fill="#e69f00"/>
<rect x="572.81" y="166.762" width="1.837" height="121.238" fill="#e69f00"/>
<rect x="575.434" y="145.459" width="1.837" height="142.541" fill="#e69f00"/>
<rect x="578.058" y="269.601" width="1.837" height="18.399" fill="#e69f00"/>
<rect x="580.682" y="142.159" width="1.837" height="145.841" fill="#e69f00"/>
<rect x="583.306" y="152.676" width="1.837" height="135.324" fill="#e69f00"/>
<rect x="585.93" y="147.686" width="1.837" height="140.314" fill="#e69f00"/>
<rect x="588.554" y="139.567" width="1.837" height="148.433" fill="#e69f00"/>
<rect x="591.178" y="103.652" width="1.837" height="184.348" fill="#e69f00"/>
<rect x="593.802" y="203.969" width="1.837" height="84.031" fill="#e69f00"/>
<rect x="596.426" y="238" width="1.837" height="50" fill="#e69f00"/>
<rect x="599.05" y="186.193" width="1.837" height="101.807" fill="#e69f00"/>
<rect x="601.674" y="151.602" width="1.837" height="136.398" fill="#e69f00"/>
<rect x="604.298" y="141.137" width="1.837" height="146.863" fill="#e69f00"/>
<rect x="606.922" y="139.66" width="1.837" height="148.34" fill="#e69f00"/>
<rect x="609.546" y="161.037" width="1.837" height="126.963" fill="#e69f00"/>
<rect x="612.17" y="193.027" width="1.837" height="94.973" fill="#e69f00"/>
</svg>
