<svg xmlns="http://www.w3.org/2000/svg" viewBox="0 0 640 320" width="640" height="320">
<rect width="100%" height="100%" fill="#141414"/>
<line x1="89.6" y1="12.8" x2="89.6" y2="288" stroke="#2c2c2c" stroke-width="1"/>
<line x1="89.6" y1="288" x2="486.4" y2="288" stroke="#2c2c2c" stroke-width="1"/>
<line x1="486.4" y1="12.8" x2="486.4" y2="288" stroke="#2c2c2c" stroke-width="1"/>
<line x1="89.6" y1="12.8" x2="486.4" y2="12.8" stroke="#2c2c2c" stroke-width="1"/>
<text x="89.6" y="300" text-anchor="middle" font-size="12" font-family="monospace" fill="#626262">0</text>
<text x="146.286" y="300" text-anchor="middle" font-size="12" font-family="monospace" fill="#626262">10</text>
<text x="202.971" y="300" text-anchor="middle" font-size="12" font-family="monospace" fill="#626262">20</text>
<text x="259.657" y="300" text-anchor="middle" font-size="12" font-family="monospace" fill="#626262">30</text>
<text x="316.343" y="300" text-anchor="middle" font-size="12" font-family="monospace" fill="#626262">40</text>
<text x="373.029" y="300" text-anchor="middle" font-size="12" font-family="monospace" fill="#626262">50</text>
<text x="429.714" y="300" text-anchor="middle" font-size="12" font-family="monospace" fill="#626262">60</text>
<text x="486.4" y="300" text-anchor="middle" font-size="12" font-family="monospace" fill="#626262">70</text>
<rect x="498.4" y="15.2" width="9.6" height="9.6" fill="#e69f00"/>
<text x="512" y="24.8" text-anchor="start" font-size="12" font-family="monospace" fill="#626262">before</text>
<rect x="498.4" y="34.4" width="9.6" height="9.6" fill="#56b4e9"/>
<text x="512" y="44" text-anchor="start" font-size="12" font-family="monospace" fill="#626262">after</text>
<rect x="89.6" y="13.029" width="113.371" height="0.688" fill="#e69f00"/>
<rect x="89.6" y="15.323" width="160.987" height="0.688" fill="#e69f00"/>
<rect x="89.6" y="17.616" width="130.377" height="0.688" fill="#e69f00"/>
<rect x="89.6" y="19.909" width="177.993" height="0.688" fill="#e69f00"/>
<rect x="89.6" y="22.203" width="147.383" height="0.688" fill="#e69f00"/>
<rect x="89.6" y="24.496" width="116.773" height="0.688" fill="#e69f00"/>
<rect x="89.6" y="26.789" width="164.389" height="0.688" fill="#e69f00"/>
<rect x="89.6" y="29.083" width="133.778" height="0.688" fill="#e69f00"/>
<rect x="89.6" y="31.376" width="181.394" height="0.688" fill="#e69f00"/>
<rect x="89.6" y="33.669" width="150.784" height="0.688" fill="#e69f00"/>
<rect x="89.6" y="35.963" width="120.174" height="0.688" fill="#e69f00"/>
<rect x="89.6" y="38.256" width="167.79" height="0.688" fill="#e69f00"/>
<rect x="89.6" y="40.549" width="137.179" height="0.688" fill="#e69f00"/>
<rect x="89.6" y="42.843" width="184.795" height="0.688" fill="#e69f00"/>
<rect x="89.6" y="45.136" width="154.185" height="0.688" fill="#e69f00"/>
<rect x="89.6" y="47.429" width="123.575" height="0.688" fill="#e69f00"/>
<rect x="89.6" y="49.723" width="171.191" height="0.688" fill="#e69f00"/>
<rect x="89.6" y="52.016" width="140.581" height="0.688" fill="#e69f00"/>
<rect x="89.6" y="54.309" width="188.197" height="0.688" fill="#e69f00"/>
<rect x="89.6" y="56.603" width="157.586" height="0.688" fill="#e69f00"/>
<rect x="89.6" y="58.896" width="126.976" height="0.688" fill="#e69f00"/>
<rect x="89.6" y="61.189" width="174.592" height="0.688" fill="#e69f00"/>
<rect x="89.6" y="63.483" width="143.982" height="0.688" fill="#e69f00"/>
<rect x="89.6" y="65.776" width="113.371" height="0.688" fill="#e69f00"/>
<rect x="89.6" y="68.069" width="160.987" height="0.688" fill="#e69f00"/>
<rect x="89.6" y="70.363" width="130.377" height="0.688" fill="#e69f00"/>
<rect x="89.6" y="72.656" width="177.993" height="0.688" fill="#e69f00"/>
<rect x="89.6" y="74.949" width="147.383" height="0.688" fill="#e69f00"/>
<rect x="89.6" y="77.243" width="116.773" height="0.688" fill="#e69f00"/>
<rect x="89.6" y="79.536" width="164.389" height="0.688" fill="#e69f00"/>
<rect x="89.6" y="81.829" width="133.778" height="0.688" fill="#e69f00"/>
<rect x="89.6" y="84.123" width="181.394" height="0.688" fill="#e69f00"/>
<rect x="89.6" y="86.416" width="150.784" height="0.688" fill="#e69f00"/>
<rect x="89.6" y="88.709" width="120.174" height="0.688" fill="#e69f00"/>
<rect x="89.6" y="91.003" width="167.79" height="0.688" fill="#e69f00"/>
<rect x="89.6" y="93.296" width="137.179" height="0.688" fill="#e69f00"/>
<rect x="89.6" y="95.589" width="184.795" height="0.688" fill="#e69f00"/>
<rect x="89.6" y="97.883" width="154.185" height="0.688" fill="#e69f00"/>
<rect x="89.6" y="100.176" width="123.575" height="0.688" fill="#e69f00"/>
<rect x="89.6" y="102.469" width="171.191" height="0.688" fill="#e69f00"/>
<rect x="89.6" y="104.763" width="140.581" height="0.688" fill="#e69f00"/>
<rect x="89.6" y="107.056" width="188.197" height="0.688" fill="#e69f00"/>
<rect x="89.6" y="109.349" width="157.586" height="0.688" fill="#e69f00"/>
<rect x="89.6" y="111.643" width="126.976" height="0.688" fill="#e69f00"/>
<rect x="89.6" y="113.936" width="174.592" height="0.688" fill="#e69f00"/>
<rect x="89.6" y="116.229" width="143.982" height="0.688" fill="#e69f00"/>
<rect x="89.6" y="118.523" width="113.371" height="0.688" fill="#e69f00"/>
<rect x="89.6" y="120.816" width="160.987" height="0.688" fill="#e69f00"/>
<rect x="89.6" y="123.109" width="130.377" height="0.688" fill="#e69f00"/>
<rect x="89.6" y="125.403" width="177.993" height="0.688" fill="#e69f00"/>
<rect x="89.6" y="127.696" width="147.383" height="0.688" fill="#e69f00"/>
<rect x="89.6" y="129.989" width="116.773" height="0.688" fill="#e69f00"/>
<rect x="89.6" y="132.283" width="164.389" height="0.688" fill="#e69f00"/>
<rect x="89.6" y="134.576" width="133.778" height="0.688" fill="#e69f00"/>
<rect x="89.6" y="136.869" width="181.394" height="0.688" fill="#e69f00"/>
<rect x="89.6" y="139.163" width="150.784" height="0.688" fill="#e69f00"/>
<rect x="89.6" y="141.456" width="120.174" height="0.688" fill="#e69f00"/>
<rect x="89.6" y="143.749" width="167.79" height="0.688" fill="#e69f00"/>
<rect x="89.6" y="146.043" width="137.179" height="0.688" fill="#e69f00"/>
<rect x="89.6" y="148.336" width="184.795" height="0.688" fill="#e69f00"/>
<rect x="89.6" y="150.629" width="154.185" height="0.688" fill="#e69f00"/>
<rect x="89.6" y="152.923" width="123.575" height="0.688" fill="#e69f00"/>
<rect x="89.6" y="155.216" width="171.191" height="0.688" fill="#e69f00"/>
<rect x="89.6" y="157.509" width="140.581" height="0.688" fill="#e69f00"/>
<rect x="89.6" y="159.803" width="188.197" height="0.688" fill="#e69f00"/>
<rect x="89.6" y="162.096" width="157.586" height="0.688" fill="#e69f00"/>
<rect x="89.6" y="164.389" width="126.976" height="0.688" fill="#e69f00"/>
<rect x="89.6" y="166.683" width="174.592" height="0.688" fill="#e69f00"/>
<rect x="89.6" y="168.976" width="143.982" height="0.688" fill="#e69f00"/>
<rect x="89.6" y="171.269" width="113.371" height="0.688" fill="#e69f00"/>
<rect x="89.6" y="173.563" width="160.987" height="0.688" fill="#e69f00"/>
<rect x="89.6" y="175.856" width="130.377" height="0.688" fill="#e69f00"/>
<rect x="89.6" y="178.149" width="177.993" height="0.688" fill="#e69f00"/>
<rect x="89.6" y="180.443" width="147.383" height="0.688" fill="#e69f00"/>
<rect x="89.6" y="182.736" width="116.773" height="0.688" fill="#e69f00"/>
<rect x="89.6" y="185.029" width="164.389" height="0.688" fill="#e69f00"/>
<rect x="89.6" y="187.323" width="133.778" height="0.688" fill="#e69f00"/>
<rect x="89.6" y="189.616" width="181.394" height="0.688" fill="#e69f00"/>
<rect x="89.6" y="191.909" width="150.784" height="0.688" fill="#e69f00"/>
<rect x="89.6" y="194.203" width="120.174" height="0.688" fill="#e69f00"/>
<rect x="89.6" y="196.496" width="167.79" height="0.688" fill="#e69f00"/>
<rect x="89.6" y="198.789" width="137.179" height="0.688" fill="#e69f00"/>
<rect x="89.6" y="201.083" width="184.795" height="0.688" fill="#e69f00"/>
<rect x="89.6" y="203.376" width="154.185" height="0.688" fill="#e69f00"/>
<rect x="89.6" y="205.669" width="123.575" height="0.688" fill="#e69f00"/>
<rect x="89.6" y="207.963" width="171.191" height="0.688" fill="#e69f00"/>
<rect x="89.6" y="210.256" width="140.581" height="0.688" fill="#e69f00"/>
<rect x="89.6" y="212.549" width="188.197" height="0.688" fill="#e69f00"/>
<rect x="89.6" y="214.843" width="157.586" height="0.688" fill="#e69f00"/>
<rect x="89.6" y="217.136" width="126.976" height="0.688" fill="#e69f00"/>
<rect x="89.6" y="219.429" width="174.592" height="0.688" fill="#e69f00"/>
<rect x="89.6" y="221.723" width="143.982" height="0.688" fill="#e69f00"/>
<rect x="89.6" y="224.016" width="113.371" height="0.688" fill="#e69f00"/>
<rect x="89.6" y="226.309" width="160.987" height="0.688" fill="#e69f00"/>
<rect x="89.6" y="228.603" width="130.377" height="0.688" fill="#e69f00"/>
<rect x="89.6" y="230.896" width="177.993" height="0.688" fill="#e69f00"/>
<rect x="89.6" y="233.189" width="147.383" height="0.688" fill="#e69f00"/>
<rect x="89.6" y="235.483" width="116.773" height="0.688" fill="#e69f00"/>
<rect x="89.6" y="237.776" width="164.389" height="0.688" fill="#e69f00"/>
<rect x="89.6" y="240.069" width="133.778" height="0.688" fill="#e69f00"/>
<rect x="89.6" y="242.363" width="181.394" height="0.688" fill="#e69f00"/>
<rect x="89.6" y="244.656" width="150.784" height="0.688" fill="#e69f00"/>
<rect x="89.6" y="246.949" width="120.174" height="0.688" fill="#e69f00"/>
<rect x="89.6" y="249.243" width="167.79" height="0.688" fill="#e69f00"/>
<rect x="89.6" y="251.536" width="137.179" height="0.688" fill="#e69f00"/>
<rect x="89.6" y="253.829" width="184.795" height="0.688" fill="#e69f00"/>
<rect x="89.6" y="256.123" width="154.185" height="0.688" fill="#e69f00"/>
<rect x="89.6" y="258.416" width="123.575" height="0.688" fill="#e69f00"/>
<rect x="89.6" y="260.709" width="171.191" height="0.688" fill="#e69f00"/>
<rect x="89.6" y="263.003" width="140.581" height="0.688" fill="#e69f00"/>
<rect x="89.6" y="265.296" width="188.197" height="0.688" fill="#e69f00"/>
<rect x="89.6" y="267.589" width="157.586" height="0.688" fill="#e69f00"/>
<rect x="89.6" y="269.883" width="126.976" height="0.688" fill="#e69f00"/>
<rect x="89.6" y="272.176" width="174.592" height="0.688" fill="#e69f00"/>
<rect x="89.6" y="274.469" width="143.982" height="0.688" fill="#e69f00"/>
<rect x="89.6" y="276.763" width="113.371" height="0.688" fill="#e69f00"/>
<rect x="89.6" y="279.056" width="160.987" height="0.688" fill="#e69f00"/>
<rect x="89.6" y="281.349" width="130.377" height="0.688" fill="#e69f00"/>
<rect x="89.6" y="283.643" width="177.993" height="0.688" fill="#e69f00"/>
<rect x="89.6" y="285.936" width="147.383" height="0.688" fill="#e69f00"/>
<rect x="89.6" y="14.176" width="255.086" height="0.688" fill="#56b4e9"/>
<rect x="89.6" y="16.469" width="342.382" height="0.688" fill="#56b4e9"/>
<rect x="89.6" y="18.763" width="306.67" height="0.688" fill="#56b4e9"/>
<rect x="89.6" y="21.056" width="270.958" height="0.688" fill="#56b4e9"/>
<rect x="89.6" y="23.349" width="358.254" height="0.688" fill="#56b4e9"/>
<rect x="89.6" y="25.643" width="322.542" height="0.688" fill="#56b4e9"/>
<rect x="89.6" y="27.936" width="286.83" height="0.688" fill="#56b4e9"/>
<rect x="89.6" y="30.229" width="374.126" height="0.688" fill="#56b4e9"/>
<rect x="89.6" y="32.523" width="338.414" height="0.688" fill="#56b4e9"/>
<rect x="89.6" y="34.816" width="302.702" height="0.688" fill="#56b4e9"/>
<rect x="89.6" y="37.109" width="266.99" height="0.688" fill="#56b4e9"/>
<rect x="89.6" y="39.403" width="354.286" height="0.688" fill="#56b4e9"/>
<rect x="89.6" y="41.696" width="318.574" height="0.688" fill="#56b4e9"/>
<rect x="89.6" y="43.989" width="282.862" height="0.688" fill="#56b4e9"/>
<rect x="89.6" y="46.283" width="370.158" height="0.688" fill="#56b4e9"/>
<rect x="89.6" y="48.576" width="334.446" height="0.688" fill="#56b4e9"/>
<rect x="89.6" y="50.869" width="298.734" height="0.688" fill="#56b4e9"/>
<rect x="89.6" y="53.163" width="263.022" height="0.688" fill="#56b4e9"/>
<rect x="89.6" y="55.456" width="350.318" height="0.688" fill="#56b4e9"/>
<rect x="89.6" y="57.749" width="314.606" height="0.688" fill="#56b4e9"/>
<rect x="89.6" y="60.043" width="278.894" height="0.688" fill="#56b4e9"/>
<rect x="89.6" y="62.336" width="366.19" height="0.688" fill="#56b4e9"/>
<rect x="89.6" y="64.629" width="330.478" height="0.688" fill="#56b4e9"/>
<rect x="89.6" y="66.923" width="294.766" height="0.688" fill="#56b4e9"/>
<rect x="89.6" y="69.216" width="259.054" height="0.688" fill="#56b4e9"/>
<rect x="89.6" y="71.509" width="346.35" height="0.688" fill="#56b4e9"/>
<rect x="89.6" y="73.803" width="310.638" height="0.688" fill="#56b4e9"/>
<rect x="89.6" y="76.096" width="274.926" height="0.688" fill="#56b4e9"/>
<rect x="89.6" y="78.389" width="362.222" height="0.688" fill="#56b4e9"/>
<rect x="89.6" y="80.683" width="326.51" height="0.688" fill="#56b4e9"/>
<rect x="89.6" y="82.976" width="290.798" height="0.688" fill="#56b4e9"/>
<rect x="89.6" y="85.269" width="255.086" height="0.688" fill="#56b4e9"/>
<rect x="89.6" y="87.563" width="342.382" height="0.688" fill="#56b4e9"/>
<rect x="89.6" y="89.856" width="306.67" height="0.688" fill="#56b4e9"/>
<rect x="89.6" y="92.149" width="270.958" height="0.688" fill="#56b4e9"/>
<rect x="89.6" y="94.443" width="358.254" height="0.688" fill="#56b4e9"/>
<rect x="89.6" y="96.736" width="322.542" height="0.688" fill="#56b4e9"/>
<rect x="89.6" y="99.029" width="286.83" height="0.688" fill="#56b4e9"/>
<rect x="89.6" y="101.323" width="374.126" height="0.688" fill="#56b4e9"/>
<rect x="89.6" y="103.616" width="338.414" height="0.688" fill="#56b4e9"/>
<rect x="89.6" y="105.909" width="302.702" height="0.688" fill="#56b4e9"/>
<rect x="89.6" y="108.203" width="266.99" height="0.688" fill="#56b4e9"/>
<rect x="89.6" y="110.496" width="354.286" height="0.688" fill="#56b4e9"/>
<rect x="89.6" y="112.789" width="318.574" height="0.688" fill="#56b4e9"/>
<rect x="89.6" y="115.083" width="282.862" height="0.688" fill="#56b4e9"/>
<rect x="89.6" y="117.376" width="370.158" height="0.688" fill="#56b4e9"/>
<rect x="89.6" y="119.669" width="334.446" height="0.688" fill="#56b4e9"/>
<rect x="89.6" y="121.963" width="298.734" height="0.688" fill="#56b4e9"/>
<rect x="89.6" y="124.256" width="263.022" height="0.688" fill="#56b4e9"/>
<rect x="89.6" y="126.549" width="350.318" height="0.688" fill="#56b4e9"/>
<rect x="89.6" y="128.843" width="314.606" height="0.688" fill="#56b4e9"/>
<rect x="89.6" y="131.136" width="278.894" height="0.688" fill="#56b4e9"/>
<rect x="89.6" y="133.429" width="366.19" height="0.688" fill="#56b4e9"/>
<rect x="89.6" y="135.723" width="330.478" height="0.688" fill="#56b4e9"/>
<rect x="89.6" y="138.016" width="294.766" height="0.688" fill="#56b4e9"/>
<rect x="89.6" y="140.309" width="259.054" height="0.688" fill="#56b4e9"/>
<rect x="89.6" y="142.603" width="346.35" height="0.688" fill="#56b4e9"/>
<rect x="89.6" y="144.896" width="310.638" height="0.688" fill="#56b4e9"/>
<rect x="89.6" y="147.189" width="274.926" height="0.688" fill="#56b4e9"/>
<rect x="89.6" y="149.483" width="362.222" height="0.688" fill="#56b4e9"/>
<rect x="89.6" y="151.776" width="326.51" height="0.688" fill="#56b4e9"/>
<rect x="89.6" y="154.069" width="290.798" height="0.688" fill="#56b4e9"/>
<rect x="89.6" y="156.363" width="255.086" height="0.688" fill="#56b4e9"/>
<rect x="89.6" y="158.656" width="342.382" height="0.688" fill="#56b4e9"/>
<rect x="89.6" y="160.949" width="306.67" height="0.688" fill="#56b4e9"/>
<rect x="89.6" y="163.243" width="270.958" height="0.688" fill="#56b4e9"/>
<rect x="89.6" y="165.536" width="358.254" height="0.688" fill="#56b4e9"/>
<rect x="89.6" y="167.829" width="322.542" height="0.688" fill="#56b4e9"/>
<rect x="89.6" y="170.123" width="286.83" height="0.688" fill="#56b4e9"/>
<rect x="89.6" y="172.416" width="374.126" height="0.688" fill="#56b4e9"/>
<rect x="89.6" y="174.709" width="338.414" height="0.688" fill="#56b4e9"/>
<rect x="89.6" y="177.003" width="302.702" height="0.688" fill="#56b4e9"/>
<rect x="89.6" y="179.296" width="266.99" height="0.688" fill="#56b4e9"/>
<rect x="89.6" y="181.589" width="354.286" height="0.688" fill="#56b4e9"/>
<rect x="89.6" y="183.883" width="318.574" height="0.688" fill="#56b4e9"/>
<rect x="89.6" y="186.176" width="282.862" height="0.688" fill="#56b4e9"/>
<rect x="89.6" y="188.469" width="370.158" height="0.688" fill="#56b4e9"/>
<rect x="89.6" y="190.763" width="334.446" height="0.688" fill="#56b4e9"/>
<rect x="89.6" y="193.056" width="298.734" height="0.688" fill="#56b4e9"/>
<rect x="89.6" y="195.349" width="263.022" height="0.688" fill="#56b4e9"/>
<rect x="89.6" y="197.643" width="350.318" height="0.688" fill="#56b4e9"/>
<rect x="89.6" y="199.936" width="314.606" height="0.688" fill="#56b4e9"/>
<rect x="89.6" y="202.229" width="278.894" height="0.688" fill="#56b4e9"/>
<rect x="89.6" y="204.523" width="366.19" height="0.688" fill="#56b4e9"/>
<rect x="89.6" y="206.816" width="330.478" height="0.688" fill="#56b4e9"/>
<rect x="89.6" y="209.109" width="294.766" height="0.688" fill="#56b4e9"/>
<rect x="89.6" y="211.403" width="259.054" height="0.688" fill="#56b4e9"/>
<rect x="89.6" y="213.696" width="346.35" height="0.688" fill="#56b4e9"/>
<rect x="89.6" y="215.989" width="310.638" height="0.688" fill="#56b4e9"/>
<rect x="89.6" y="218.283" width="274.926" height="0.688" fill="#56b4e9"/>
<rect x="89.6" y="220.576" width="362.222" height="0.688" fill="#56b4e9"/>
<rect x="89.6" y="222.869" width="326.51" height="0.688" fill="#56b4e9"/>
<rect x="89.6" y="225.163" width="290.798" height="0.688" fill="#56b4e9"/>
<rect x="89.6" y="227.456" width="255.086" height="0.688" fill="#56b4e9"/>
<rect x="89.6" y="229.749" width="342.382" height="0.688" fill="#56b4e9"/>
<rect x="89.6" y="232.043" width="306.67" height="0.688" fill="#56b4e9"/>
<rect x="89.6" y="234.336" width="270.958" height="0.688" fill="#56b4e9"/>
<rect x="89.6" y="236.629" width="358.254" height="0.688" fill="#56b4e9"/>
<rect x="89.6" y="238.923" width="322.542" height="0.688" fill="#56b4e9"/>
<rect x="89.6" y="241.216" width="286.83" height="0.688" fill="#56b4e9"/>
<rect x="89.6" y="243.509" width="374.126" height="0.688" fill="#56b4e9"/>
<rect x="89.6" y="245.803" width="338.414" height="0.688" fill="#56b4e9"/>
<rect x="89.6" y="248.096" width="302.702" height="0.688" fill="#56b4e9"/>
<rect x="89.6" y="250.389" width="266.99" height="0.688" fill="#56b4e9"/>
<rect x="89.6" y="252.683" width="354.286" height="0.688" fill="#56b4e9"/>
<rect x="89.6" y="254.976" width="318.574" height="0.688" fill="#56b4e9"/>
<rect x="89.6" y="257.269" width="282.862" height="0.688" fill="#56b4e9"/>
<rect x="89.6" y="259.563" width="370.158" height="0.688" fill="#56b4e9"/>
<rect x="89.6" y="261.856" width="334.446" height="0.688" fill="#56b4e9"/>
<rect x="89.6" y="264.149" width="298.734" height="0.688" fill="#56b4e9"/>
<rect x="89.6" y="266.443" width="263.022" height="0.688" fill="#56b4e9"/>
<rect x="89.6" y="268.736" width="350.318" height="0.688" fill="#56b4e9"/>
<rect x="89.6" y="271.029" width="314.606" height="0.688" fill="#56b4e9"/>
<rect x="89.6" y="273.323" width="278.894" height="0.688" fill="#56b4e9"/>
<rect x="89.6" y="275.616" width="366.19" height="0.688" fill="#56b4e9"/>
<rect x="89.6" y="277.909" width="330.478" height="0.688" fill="#56b4e9"/>
<rect x="89.6" y="280.203" width="294.766" height="0.688" fill="#56b4e9"/>
<rect x="89.6" y="282.496" width="259.054" height="0.688" fill="#56b4e9"/>
<rect x="89.6" y="284.789" width="346.35" height="0.688" fill="#56b4e9"/>
<rect x="89.6" y="287.083" width="310.638" height="0.688" fill="#56b4e9"/>
</svg>
