<svg xmlns="http://www.w3.org/2000/svg" viewBox="0 0 640 320" width="640" height="320">
<rect width="100%" height="100%" fill="#141414"/>
<line x1="89.6" y1="12.8" x2="89.6" y2="288" stroke="#2c2c2c" stroke-width="1"/>
<text x="89.6" y="300" text-anchor="middle" font-size="12" font-family="monospace" fill="#626262">0</text>
<line x1="164.571" y1="12.8" x2="164.571" y2="288" stroke="#2c2c2c" stroke-width="1"/>
<text x="164.571" y="300" text-anchor="middle" font-size="12" font-family="monospace" fill="#626262">10</text>
<line x1="239.543" y1="12.8" x2="239.543" y2="288" stroke="#2c2c2c" stroke-width="1"/>
<text x="239.543" y="300" text-anchor="middle" font-size="12" font-family="monospace" fill="#626262">20</text>
<line x1="314.514" y1="12.8" x2="314.514" y2="288" stroke="#2c2c2c" stroke-width="1"/>
<text x="314.514" y="300" text-anchor="middle" font-size="12" font-family="monospace" fill="#626262">30</text>
<line x1="389.486" y1="12.8" x2="389.486" y2="288" stroke="#2c2c2c" stroke-width="1"/>
<text x="389.486" y="300" text-anchor="middle" font-size="12" font-family="monospace" fill="#626262">40</text>
<line x1="464.457" y1="12.8" x2="464.457" y2="288" stroke="#2c2c2c" stroke-width="1"/>
<text x="464.457" y="300" text-anchor="middle" font-size="12" font-family="monospace" fill="#626262">50</text>
<line x1="539.429" y1="12.8" x2="539.429" y2="288" stroke="#2c2c2c" stroke-width="1"/>
<text x="539.429" y="300" text-anchor="middle" font-size="12" font-family="monospace" fill="#626262">60</text>
<line x1="614.4" y1="12.8" x2="614.4" y2="288" stroke="#2c2c2c" stroke-width="1"/>
<text x="614.4" y="300" text-anchor="middle" font-size="12" font-family="monospace" fill="#626262">70</text>
<rect x="89.6" y="13.029" width="149.943" height="0.688" fill="#e69f00"/>
<rect x="89.6" y="15.323" width="212.919" height="0.688" fill="#e69f00"/>
<rect x="89.6" y="17.616" width="172.434" height="0.688" fill="#e69f00"/>
<rect x="89.6" y="19.909" width="235.41" height="0.688" fill="#e69f00"/>
<rect x="89.6" y="22.203" width="194.926" height="0.688" fill="#e69f00"/>
<rect x="89.6" y="24.496" width="154.441" height="0.688" fill="#e69f00"/>
<rect x="89.6" y="26.789" width="217.417" height="0.688" fill="#e69f00"/>
<rect x="89.6" y="29.083" width="176.933" height="0.688" fill="#e69f00"/>
<rect x="89.6" y="31.376" width="239.909" height="0.688" fill="#e69f00"/>
<rect x="89.6" y="33.669" width="199.424" height="0.688" fill="#e69f00"/>
<rect x="89.6" y="35.963" width="158.939" height="0.688" fill="#e69f00"/>
<rect x="89.6" y="38.256" width="221.915" height="0.688" fill="#e69f00"/>
<rect x="89.6" y="40.549" width="181.431" height="0.688" fill="#e69f00"/>
<rect x="89.6" y="42.843" width="244.407" height="0.688" fill="#e69f00"/>
<rect x="89.6" y="45.136" width="203.922" height="0.688" fill="#e69f00"/>
<rect x="89.6" y="47.429" width="163.438" height="0.688" fill="#e69f00"/>
<rect x="89.6" y="49.723" width="226.414" height="0.688" fill="#e69f00"/>
<rect x="89.6" y="52.016" width="185.929" height="0.688" fill="#e69f00"/>
<rect x="89.6" y="54.309" width="248.905" height="0.688" fill="#e69f00"/>
<rect x="89.6" y="56.603" width="208.421" height="0.688" fill="#e69f00"/>
<rect x="89.6" y="58.896" width="167.936" height="0.688" fill="#e69f00"/>
<rect x="89.6" y="61.189" width="230.912" height="0.688" fill="#e69f00"/>
<rect x="89.6" y="63.483" width="190.427" height="0.688" fill="#e69f00"/>
<rect x="89.6" y="65.776" width="149.943" height="0.688" fill="#e69f00"/>
<rect x="89.6" y="68.069" width="212.919" height="0.688" fill="#e69f00"/>
<rect x="89.6" y="70.363" width="172.434" height="0.688" fill="#e69f00"/>
<rect x="89.6" y="72.656" width="235.41" height="0.688" fill="#e69f00"/>
<rect x="89.6" y="74.949" width="194.926" height="0.688" fill="#e69f00"/>
<rect x="89.6" y="77.243" width="154.441" height="0.688" fill="#e69f00"/>
<rect x="89.6" y="79.536" width="217.417" height="0.688" fill="#e69f00"/>
<rect x="89.6" y="81.829" width="176.933" height="0.688" fill="#e69f00"/>
<rect x="89.6" y="84.123" width="239.909" height="0.688" fill="#e69f00"/>
<rect x="89.6" y="86.416" width="199.424" height="0.688" fill="#e69f00"/>
<rect x="89.6" y="88.709" width="158.939" height="0.688" fill="#e69f00"/>
<rect x="89.6" y="91.003" width="221.915" height="0.688" fill="#e69f00"/>
<rect x="89.6" y="93.296" width="181.431" height="0.688" fill="#e69f00"/>
<rect x="89.6" y="95.589" width="244.407" height="0.688" fill="#e69f00"/>
<rect x="89.6" y="97.883" width="203.922" height="0.688" fill="#e69f00"/>
<rect x="89.6" y="100.176" width="163.438" height="0.688" fill="#e69f00"/>
<rect x="89.6" y="102.469" width="226.414" height="0.688" fill="#e69f00"/>
<rect x="89.6" y="104.763" width="185.929" height="0.688" fill="#e69f00"/>
<rect x="89.6" y="107.056" width="248.905" height="0.688" fill="#e69f00"/>
<rect x="89.6" y="109.349" width="208.421" height="0.688" fill="#e69f00"/>
<rect x="89.6" y="111.643" width="167.936" height="0.688" fill="#e69f00"/>
<rect x="89.6" y="113.936" width="230.912" height="0.688" fill="#e69f00"/>
<rect x="89.6" y="116.229" width="190.427" height="0.688" fill="#e69f00"/>
<rect x="89.6" y="118.523" width="149.943" height="0.688" fill="#e69f00"/>
<rect x="89.6" y="120.816" width="212.919" height="0.688" fill="#e69f00"/>
<rect x="89.6" y="123.109" width="172.434" height="0.688" fill="#e69f00"/>
<rect x="89.6" y="125.403" width="235.41" height="0.688" fill="#e69f00"/>
<rect x="89.6" y="127.696" width="194.926" height="0.688" fill="#e69f00"/>
<rect x="89.6" y="129.989" width="154.441" height="0.688" fill="#e69f00"/>
<rect x="89.6" y="132.283" width="217.417" height="0.688" fill="#e69f00"/>
<rect x="89.6" y="134.576" width="176.933" height="0.688" fill="#e69f00"/>
<rect x="89.6" y="136.869" width="239.909" height="0.688" fill="#e69f00"/>
<rect x="89.6" y="139.163" width="199.424" height="0.688" fill="#e69f00"/>
<rect x="89.6" y="141.456" width="158.939" height="0.688" fill="#e69f00"/>
<rect x="89.6" y="143.749" width="221.915" height="0.688" fill="#e69f00"/>
<rect x="89.6" y="146.043" width="181.431" height="0.688" fill="#e69f00"/>
<rect x="89.6" y="148.336" width="244.407" height="0.688" fill="#e69f00"/>
<rect x="89.6" y="150.629" width="203.922" height="0.688" fill="#e69f00"/>
<rect x="89.6" y="152.923" width="163.438" height="0.688" fill="#e69f00"/>
<rect x="89.6" y="155.216" width="226.414" height="0.688" fill="#e69f00"/>
<rect x="89.6" y="157.509" width="185.929" height="0.688" fill="#e69f00"/>
<rect x="89.6" y="159.803" width="248.905" height="0.688" fill="#e69f00"/>
<rect x="89.6" y="162.096" width="208.421" height="0.688" fill="#e69f00"/>
<rect x="89.6" y="164.389" width="167.936" height="0.688" fill="#e69f00"/>
<rect x="89.6" y="166.683" width="230.912" height="0.688" fill="#e69f00"/>
<rect x="89.6" y="168.976" width="190.427" height="0.688" fill="#e69f00"/>
<rect x="89.6" y="171.269" width="149.943" height="0.688" fill="#e69f00"/>
<rect x="89.6" y="173.563" width="212.919" height="0.688" fill="#e69f00"/>
<rect x="89.6" y="175.856" width="172.434" height="0.688" fill="#e69f00"/>
<rect x="89.6" y="178.149" width="235.41" height="0.688" fill="#e69f00"/>
<rect x="89.6" y="180.443" width="194.926" height="0.688" fill="#e69f00"/>
<rect x="89.6" y="182.736" width="154.441" height="0.688" fill="#e69f00"/>
<rect x="89.6" y="185.029" width="217.417" height="0.688" fill="#e69f00"/>
<rect x="89.6" y="187.323" width="176.933" height="0.688" fill="#e69f00"/>
<rect x="89.6" y="189.616" width="239.909" height="0.688" fill="#e69f00"/>
<rect x="89.6" y="191.909" width="199.424" height="0.688" fill="#e69f00"/>
<rect x="89.6" y="194.203" width="158.939" height="0.688" fill="#e69f00"/>
<rect x="89.6" y="196.496" width="221.915" height="0.688" fill="#e69f00"/>
<rect x="89.6" y="198.789" width="181.431" height="0.688" fill="#e69f00"/>
<rect x="89.6" y="201.083" width="244.407" height="0.688" fill="#e69f00"/>
<rect x="89.6" y="203.376" width="203.922" height="0.688" fill="#e69f00"/>
<rect x="89.6" y="205.669" width="163.438" height="0.688" fill="#e69f00"/>
<rect x="89.6" y="207.963" width="226.414" height="0.688" fill="#e69f00"/>
<rect x="89.6" y="210.256" width="185.929" height="0.688" fill="#e69f00"/>
<rect x="89.6" y="212.549" width="248.905" height="0.688" fill="#e69f00"/>
<rect x="89.6" y="214.843" width="208.421" height="0.688" fill="#e69f00"/>
<rect x="89.6" y="217.136" width="167.936" height="0.688" fill="#e69f00"/>
<rect x="89.6" y="219.429" width="230.912" height="0.688" fill="#e69f00"/>
<rect x="89.6" y="221.723" width="190.427" height="0.688" fill="#e69f00"/>
<rect x="89.6" y="224.016" width="149.943" height="0.688" fill="#e69f00"/>
<rect x="89.6" y="226.309" width="212.919" height="0.688" fill="#e69f00"/>
<rect x="89.6" y="228.603" width="172.434" height="0.688" fill="#e69f00"/>
<rect x="89.6" y="230.896" width="235.41" height="0.688" fill="#e69f00"/>
<rect x="89.6" y="233.189" width="194.926" height="0.688" fill="#e69f00"/>
<rect x="89.6" y="235.483" width="154.441" height="0.688" fill="#e69f00"/>
<rect x="89.6" y="237.776" width="217.417" height="0.688" fill="#e69f00"/>
<rect x="89.6" y="240.069" width="176.933" height="0.688" fill="#e69f00"/>
<rect x="89.6" y="242.363" width="239.909" height="0.688" fill="#e69f00"/>
<rect x="89.6" y="244.656" width="199.424" height="0.688" fill="#e69f00"/>
<rect x="89.6" y="246.949" width="158.939" height="0.688" fill="#e69f00"/>
<rect x="89.6" y="249.243" width="221.915" height="0.688" fill="#e69f00"/>
<rect x="89.6" y="251.536" width="181.431" height="0.688" fill="#e69f00"/>
<rect x="89.6" y="253.829" width="244.407" height="0.688" fill="#e69f00"/>
<rect x="89.6" y="256.123" width="203.922" height="0.688" fill="#e69f00"/>
<rect x="89.6" y="258.416" width="163.438" height="0.688" fill="#e69f00"/>
<rect x="89.6" y="260.709" width="226.414" height="0.688" fill="#e69f00"/>
<rect x="89.6" y="263.003" width="185.929" height="0.688" fill="#e69f00"/>
<rect x="89.6" y="265.296" width="248.905" height="0.688" fill="#e69f00"/>
<rect x="89.6" y="267.589" width="208.421" height="0.688" fill="#e69f00"/>
<rect x="89.6" y="269.883" width="167.936" height="0.688" fill="#e69f00"/>
<rect x="89.6" y="272.176" width="230.912" height="0.688" fill="#e69f00"/>
<rect x="89.6" y="274.469" width="190.427" height="0.688" fill="#e69f00"/>
<rect x="89.6" y="276.763" width="149.943" height="0.688" fill="#e69f00"/>
<rect x="89.6" y="279.056" width="212.919" height="0.688" fill="#e69f00"/>
<rect x="89.6" y="281.349" width="172.434" height="0.688" fill="#e69f00"/>
<rect x="89.6" y="283.643" width="235.41" height="0.688" fill="#e69f00"/>
<rect x="89.6" y="285.936" width="194.926" height="0.688" fill="#e69f00"/>
<rect x="89.6" y="14.176" width="337.371" height="0.688" fill="#56b4e9"/>
<rect x="89.6" y="16.469" width="452.827" height="0.688" fill="#56b4e9"/>
<rect x="89.6" y="18.763" width="405.595" height="0.688" fill="#56b4e9"/>
<rect x="89.6" y="21.056" width="358.363" height="0.688" fill="#56b4e9"/>
<rect x="89.6" y="23.349" width="473.819" height="0.688" fill="#56b4e9"/>
<rect x="89.6" y="25.643" width="426.587" height="0.688" fill="#56b4e9"/>
<rect x="89.6" y="27.936" width="379.355" height="0.688" fill="#56b4e9"/>
<rect x="89.6" y="30.229" width="494.811" height="0.688" fill="#56b4e9"/>
<rect x="89.6" y="32.523" width="447.579" height="0.688" fill="#56b4e9"/>
<rect x="89.6" y="34.816" width="400.347" height="0.688" fill="#56b4e9"/>
<rect x="89.6" y="37.109" width="353.115" height="0.688" fill="#56b4e9"/>
<rect x="89.6" y="39.403" width="468.571" height="0.688" fill="#56b4e9"/>
<rect x="89.6" y="41.696" width="421.339" height="0.688" fill="#56b4e9"/>
<rect x="89.6" y="43.989" width="374.107" height="0.688" fill="#56b4e9"/>
<rect x="89.6" y="46.283" width="489.563" height="0.688" fill="#56b4e9"/>
<rect x="89.6" y="48.576" width="442.331" height="0.688" fill="#56b4e9"/>
<rect x="89.6" y="50.869" width="395.099" height="0.688" fill="#56b4e9"/>
<rect x="89.6" y="53.163" width="347.867" height="0.688" fill="#56b4e9"/>
<rect x="89.6" y="55.456" width="463.323" height="0.688" fill="#56b4e9"/>
<rect x="89.6" y="57.749" width="416.091" height="0.688" fill="#56b4e9"/>
<rect x="89.6" y="60.043" width="368.859" height="0.688" fill="#56b4e9"/>
<rect x="89.6" y="62.336" width="484.315" height="0.688" fill="#56b4e9"/>
<rect x="89.6" y="64.629" width="437.083" height="0.688" fill="#56b4e9"/>
<rect x="89.6" y="66.923" width="389.851" height="0.688" fill="#56b4e9"/>
<rect x="89.6" y="69.216" width="342.619" height="0.688" fill="#56b4e9"/>
<rect x="89.6" y="71.509" width="458.075" height="0.688" fill="#56b4e9"/>
<rect x="89.6" y="73.803" width="410.843" height="0.688" fill="#56b4e9"/>
<rect x="89.6" y="76.096" width="363.611" height="0.688" fill="#56b4e9"/>
<rect x="89.6" y="78.389" width="479.067" height="0.688" fill="#56b4e9"/>
<rect x="89.6" y="80.683" width="431.835" height="0.688" fill="#56b4e9"/>
<rect x="89.6" y="82.976" width="384.603" height="0.688" fill="#56b4e9"/>
<rect x="89.6" y="85.269" width="337.371" height="0.688" fill="#56b4e9"/>
<rect x="89.6" y="87.563" width="452.827" height="0.688" fill="#56b4e9"/>
<rect x="89.6" y="89.856" width="405.595" height="0.688" fill="#56b4e9"/>
<rect x="89.6" y="92.149" width="358.363" height="0.688" fill="#56b4e9"/>
<rect x="89.6" y="94.443" width="473.819" height="0.688" fill="#56b4e9"/>
<rect x="89.6" y="96.736" width="426.587" height="0.688" fill="#56b4e9"/>
<rect x="89.6" y="99.029" width="379.355" height="0.688" fill="#56b4e9"/>
<rect x="89.6" y="101.323" width="494.811" height="0.688" fill="#56b4e9"/>
<rect x="89.6" y="103.616" width="447.579" height="0.688" fill="#56b4e9"/>
<rect x="89.6" y="105.909" width="400.347" height="0.688" fill="#56b4e9"/>
<rect x="89.6" y="108.203" width="353.115" height="0.688" fill="#56b4e9"/>
<rect x="89.6" y="110.496" width="468.571" height="0.688" fill="#56b4e9"/>
<rect x="89.6" y="112.789" width="421.339" height="0.688" fill="#56b4e9"/>
<rect x="89.6" y="115.083" width="374.107" height="0.688" fill="#56b4e9"/>
<rect x="89.6" y="117.376" width="489.563" height="0.688" fill="#56b4e9"/>
<rect x="89.6" y="119.669" width="442.331" height="0.688" fill="#56b4e9"/>
<rect x="89.6" y="121.963" width="395.099" height="0.688" fill="#56b4e9"/>
<rect x="89.6" y="124.256" width="347.867" height="0.688" fill="#56b4e9"/>
<rect x="89.6" y="126.549" width="463.323" height="0.688" fill="#56b4e9"/>
<rect x="89.6" y="128.843" width="416.091" height="0.688" fill="#56b4e9"/>
<rect x="89.6" y="131.136" width="368.859" height="0.688" fill="#56b4e9"/>
<rect x="89.6" y="133.429" width="484.315" height="0.688" fill="#56b4e9"/>
<rect x="89.6" y="135.723" width="437.083" height="0.688" fill="#56b4e9"/>
<rect x="89.6" y="138.016" width="389.851" height="0.688" fill="#56b4e9"/>
<rect x="89.6" y="140.309" width="342.619" height="0.688" fill="#56b4e9"/>
<rect x="89.6" y="142.603" width="458.075" height="0.688" fill="#56b4e9"/>
<rect x="89.6" y="144.896" width="410.843" height="0.688" fill="#56b4e9"/>
<rect x="89.6" y="147.189" width="363.611" height="0.688" fill="#56b4e9"/>
<rect x="89.6" y="149.483" width="479.067" height="0.688" fill="#56b4e9"/>
<rect x="89.6" y="151.776" width="431.835" height="0.688" fill="#56b4e9"/>
<rect x="89.6" y="154.069" width="384.603" height="0.688" fill="#56b4e9"/>
<rect x="89.6" y="156.363" width="337.371" height="0.688" fill="#56b4e9"/>
<rect x="89.6" y="158.656" width="452.827" height="0.688" fill="#56b4e9"/>
<rect x="89.6" y="160.949" width="405.595" height="0.688" fill="#56b4e9"/>
<rect x="89.6" y="163.243" width="358.363" height="0.688" fill="#56b4e9"/>
<rect x="89.6" y="165.536" width="473.819" height="0.688" fill="#56b4e9"/>
<rect x="89.6" y="167.829" width="426.587" height="0.688" fill="#56b4e9"/>
<rect x="89.6" y="170.123" width="379.355" height="0.688" fill="#56b4e9"/>
<rect x="89.6" y="172.416" width="494.811" height="0.688" fill="#56b4e9"/>
<rect x="89.6" y="174.709" width="447.579" height="0.688" fill="#56b4e9"/>
<rect x="89.6" y="177.003" width="400.347" height="0.688" fill="#56b4e9"/>
<rect x="89.6" y="179.296" width="353.115" height="0.688" fill="#56b4e9"/>
<rect x="89.6" y="181.589" width="468.571" height="0.688" fill="#56b4e9"/>
<rect x="89.6" y="183.883" width="421.339" height="0.688" fill="#56b4e9"/>
<rect x="89.6" y="186.176" width="374.107" height="0.688" fill="#56b4e9"/>
<rect x="89.6" y="188.469" width="489.563" height="0.688" fill="#56b4e9"/>
<rect x="89.6" y="190.763" width="442.331" height="0.688" fill="#56b4e9"/>
<rect x="89.6" y="193.056" width="395.099" height="0.688" fill="#56b4e9"/>
<rect x="89.6" y="195.349" width="347.867" height="0.688" fill="#56b4e9"/>
<rect x="89.6" y="197.643" width="463.323" height="0.688" fill="#56b4e9"/>
<rect x="89.6" y="199.936" width="416.091" height="0.688" fill="#56b4e9"/>
<rect x="89.6" y="202.229" width="368.859" height="0.688" fill="#56b4e9"/>
<rect x="89.6" y="204.523" width="484.315" height="0.688" fill="#56b4e9"/>
<rect x="89.6" y="206.816" width="437.083" height="0.688" fill="#56b4e9"/>
<rect x="89.6" y="209.109" width="389.851" height="0.688" fill="#56b4e9"/>
<rect x="89.6" y="211.403" width="342.619" height="0.688" fill="#56b4e9"/>
<rect x="89.6" y="213.696" width="458.075" height="0.688" fill="#56b4e9"/>
<rect x="89.6" y="215.989" width="410.843" height="0.688" fill="#56b4e9"/>
<rect x="89.6" y="218.283" width="363.611" height="0.688" fill="#56b4e9"/>
<rect x="89.6" y="220.576" width="479.067" height="0.688" fill="#56b4e9"/>
<rect x="89.6" y="222.869" width="431.835" height="0.688" fill="#56b4e9"/>
<rect x="89.6" y="225.163" width="384.603" height="0.688" fill="#56b4e9"/>
<rect x="89.6" y="227.456" width="337.371" height="0.688" fill="#56b4e9"/>
<rect x="89.6" y="229.749" width="452.827" height="0.688" fill="#56b4e9"/>
<rect x="89.6" y="232.043" width="405.595" height="0.688" fill="#56b4e9"/>
<rect x="89.6" y="234.336" width="358.363" height="0.688" fill="#56b4e9"/>
<rect x="89.6" y="236.629" width="473.819" height="0.688" fill="#56b4e9"/>
<rect x="89.6" y="238.923" width="426.587" height="0.688" fill="#56b4e9"/>
<rect x="89.6" y="241.216" width="379.355" height="0.688" fill="#56b4e9"/>
<rect x="89.6" y="243.509" width="494.811" height="0.688" fill="#56b4e9"/>
<rect x="89.6" y="245.803" width="447.579" height="0.688" fill="#56b4e9"/>
<rect x="89.6" y="248.096" width="400.347" height="0.688" fill="#56b4e9"/>
<rect x="89.6" y="250.389" width="353.115" height="0.688" fill="#56b4e9"/>
<rect x="89.6" y="252.683" width="468.571" height="0.688" fill="#56b4e9"/>
<rect x="89.6" y="254.976" width="421.339" height="0.688" fill="#56b4e9"/>
<rect x="89.6" y="257.269" width="374.107" height="0.688" fill="#56b4e9"/>
<rect x="89.6" y="259.563" width="489.563" height="0.688" fill="#56b4e9"/>
<rect x="89.6" y="261.856" width="442.331" height="0.688" fill="#56b4e9"/>
<rect x="89.6" y="264.149" width="395.099" height="0.688" fill="#56b4e9"/>
<rect x="89.6" y="266.443" width="347.867" height="0.688" fill="#56b4e9"/>
<rect x="89.6" y="268.736" width="463.323" height="0.688" fill="#56b4e9"/>
<rect x="89.6" y="271.029" width="416.091" height="0.688" fill="#56b4e9"/>
<rect x="89.6" y="273.323" width="368.859" height="0.688" fill="#56b4e9"/>
<rect x="89.6" y="275.616" width="484.315" height="0.688" fill="#56b4e9"/>
<rect x="89.6" y="277.909" width="437.083" height="0.688" fill="#56b4e9"/>
<rect x="89.6" y="280.203" width="389.851" height="0.688" fill="#56b4e9"/>
<rect x="89.6" y="282.496" width="342.619" height="0.688" fill="#56b4e9"/>
<rect x="89.6" y="284.789" width="458.075" height="0.688" fill="#56b4e9"/>
<rect x="89.6" y="287.083" width="410.843" height="0.688" fill="#56b4e9"/>
</svg>
