<svg xmlns="http://www.w3.org/2000/svg" viewBox="0 0 640 320" width="640" height="320">
<rect width="100%" height="100%" fill="#141414"/>
<line x1="89.6" y1="12.8" x2="89.6" y2="288" stroke="#2c2c2c" stroke-width="1"/>
<line x1="89.6" y1="288" x2="614.4" y2="288" stroke="#2c2c2c" stroke-width="1"/>
<line x1="614.4" y1="12.8" x2="614.4" y2="288" stroke="#2c2c2c" stroke-width="1"/>
<line x1="89.6" y1="12.8" x2="614.4" y2="12.8" stroke="#2c2c2c" stroke-width="1"/>
<text x="83.6" y="292" text-anchor="end" font-size="12" font-family="monospace" fill="#626262">50</text>
<text x="83.6" y="154.4" text-anchor="end" font-size="12" font-family="monospace" fill="#626262">75</text>
<text x="83.6" y="16.8" text-anchor="end" font-size="12" font-family="monospace" fill="#626262">100</text>
<text x="89.6" y="300" text-anchor="start" font-size="12" font-family="monospace" fill="#626262">first</text>
<text x="352" y="300" text-anchor="middle" font-size="12" font-family="monospace" fill="#626262">mid</text>
<text x="614.4" y="300" text-anchor="end" font-size="12" font-family="monospace" fill="#626262">last</text>
<path d="M89.6 288 L129.969 260.526 L170.338 233.326 L210.708 206.673 L251.077 180.832 L291.446 156.062 L331.815 132.61 L372.185 110.711 L412.554 90.584 L452.923 72.428 L493.292 56.427 L533.662 42.74 L574.031 31.503 L614.4 22.829" fill="none" stroke="#e69f00" stroke-width="2"/>
</svg>
