<svg xmlns="http://www.w3.org/2000/svg" viewBox="0 0 640 320" width="640" height="320">
<rect width="100%" height="100%" fill="#141414"/>
<text x="89.6" y="300" text-anchor="start" font-size="12" font-family="monospace" fill="#626262">0</text>
<text x="288" y="300" text-anchor="middle" font-size="12" font-family="monospace" fill="#626262">11</text>
<text x="486.4" y="300" text-anchor="end" font-size="12" font-family="monospace" fill="#626262">23</text>
<text x="149.6" y="316.8" text-anchor="end" font-size="12" font-family="monospace" fill="#626262">1.5</text>
<defs><linearGradient id="rsvgb" x1="0" y1="0" x2="1" y2="0"><stop offset="0" stop-color="#440154"/><stop offset="0.125" stop-color="#472d7b"/><stop offset="0.25" stop-color="#3b528b"/><stop offset="0.375" stop-color="#2c728e"/><stop offset="0.5" stop-color="#21918d"/><stop offset="0.625" stop-color="#27ad81"/><stop offset="0.75" stop-color="#5dc863"/><stop offset="0.875" stop-color="#aadc32"/><stop offset="1" stop-color="#fde725"/></linearGradient></defs>
<rect x="153.6" y="307.2" width="268.8" height="9.6" fill="url(#rsvgb)"/>
<text x="426.4" y="316.8" text-anchor="start" font-size="12" font-family="monospace" fill="#626262">99</text>
<clipPath id="isvgb-0"><rect x="0" y="23.733" width="83.6" height="24"/></clipPath>
<text x="83.6" y="39.733" text-anchor="end" clip-path="url(#isvgb-0)" font-size="12" font-family="monospace" fill="#626262">0</text>
<clipPath id="isvgb-1"><rect x="0" y="69.6" width="83.6" height="24"/></clipPath>
<text x="83.6" y="85.6" text-anchor="end" clip-path="url(#isvgb-1)" font-size="12" font-family="monospace" fill="#626262">1</text>
<clipPath id="isvgb-2"><rect x="0" y="115.467" width="83.6" height="24"/></clipPath>
<text x="83.6" y="131.467" text-anchor="end" clip-path="url(#isvgb-2)" font-size="12" font-family="monospace" fill="#626262">2</text>
<clipPath id="isvgb-3"><rect x="0" y="161.333" width="83.6" height="24"/></clipPath>
<text x="83.6" y="177.333" text-anchor="end" clip-path="url(#isvgb-3)" font-size="12" font-family="monospace" fill="#626262">3</text>
<clipPath id="isvgb-4"><rect x="0" y="207.2" width="83.6" height="24"/></clipPath>
<text x="83.6" y="223.2" text-anchor="end" clip-path="url(#isvgb-4)" font-size="12" font-family="monospace" fill="#626262">4</text>
<clipPath id="isvgb-5"><rect x="0" y="253.067" width="83.6" height="24"/></clipPath>
<text x="83.6" y="269.067" text-anchor="end" clip-path="url(#isvgb-5)" font-size="12" font-family="monospace" fill="#626262">5</text>
<rect x="89.6" y="12.8" width="16.533" height="45.867" fill="#21908d"/>
<rect x="106.133" y="12.8" width="16.533" height="45.867" fill="#21908d"/>
<rect x="122.667" y="12.8" width="16.533" height="45.867" fill="#21908d"/>
<rect x="139.2" y="12.8" width="16.533" height="45.867" fill="#21908d"/>
<rect x="155.733" y="12.8" width="16.533" height="45.867" fill="#21908d"/>
<rect x="172.267" y="12.8" width="16.533" height="45.867" fill="#21908d"/>
<rect x="188.8" y="12.8" width="16.533" height="45.867" fill="#21908d"/>
<rect x="205.333" y="12.8" width="16.533" height="45.867" fill="#21908d"/>
<rect x="221.867" y="12.8" width="16.533" height="45.867" fill="#21908d"/>
<rect x="238.4" y="12.8" width="16.533" height="45.867" fill="#21908d"/>
<rect x="254.933" y="12.8" width="16.533" height="45.867" fill="#21908d"/>
<rect x="271.467" y="12.8" width="16.533" height="45.867" fill="#21908d"/>
<rect x="288" y="12.8" width="16.533" height="45.867" fill="#21908d"/>
<rect x="304.533" y="12.8" width="16.533" height="45.867" fill="#21908d"/>
<rect x="321.067" y="12.8" width="16.533" height="45.867" fill="#21908d"/>
<rect x="337.6" y="12.8" width="16.533" height="45.867" fill="#21908d"/>
<rect x="354.133" y="12.8" width="16.533" height="45.867" fill="#21908d"/>
<rect x="370.667" y="12.8" width="16.533" height="45.867" fill="#21908d"/>
<rect x="387.2" y="12.8" width="16.533" height="45.867" fill="#21908d"/>
<rect x="403.733" y="12.8" width="16.533" height="45.867" fill="#21908d"/>
<rect x="420.267" y="12.8" width="16.533" height="45.867" fill="#21908d"/>
<rect x="436.8" y="12.8" width="16.533" height="45.867" fill="#21908d"/>
<rect x="453.333" y="12.8" width="16.533" height="45.867" fill="#21908d"/>
<rect x="469.867" y="12.8" width="16.533" height="45.867" fill="#21908d"/>
<rect x="89.6" y="58.667" width="16.533" height="45.867" fill="#21908d"/>
<rect x="106.133" y="58.667" width="16.533" height="45.867" fill="#34b679"/>
<rect x="122.667" y="58.667" width="16.533" height="45.867" fill="#68cc5c"/>
<rect x="139.2" y="58.667" width="16.533" height="45.867" fill="#6fcf57"/>
<rect x="155.733" y="58.667" width="16.533" height="45.867" fill="#41bd72"/>
<rect x="172.267" y="58.667" width="16.533" height="45.867" fill="#1f9a8a"/>
<rect x="188.8" y="58.667" width="16.533" height="45.867" fill="#2c718e"/>
<rect x="205.333" y="58.667" width="16.533" height="45.867" fill="#3b518b"/>
<rect x="221.867" y="58.667" width="16.533" height="45.867" fill="#3f4788"/>
<rect x="238.4" y="58.667" width="16.533" height="45.867" fill="#38598c"/>
<rect x="254.933" y="58.667" width="16.533" height="45.867" fill="#287d8e"/>
<rect x="271.467" y="58.667" width="16.533" height="45.867" fill="#21a585"/>
<rect x="288" y="58.667" width="16.533" height="45.867" fill="#52c569"/>
<rect x="304.533" y="58.667" width="16.533" height="45.867" fill="#74d055"/>
<rect x="321.067" y="58.667" width="16.533" height="45.867" fill="#5bc863"/>
<rect x="337.6" y="58.667" width="16.533" height="45.867" fill="#26ad81"/>
<rect x="354.133" y="58.667" width="16.533" height="45.867" fill="#25838e"/>
<rect x="370.667" y="58.667" width="16.533" height="45.867" fill="#355e8d"/>
<rect x="387.2" y="58.667" width="16.533" height="45.867" fill="#3f4889"/>
<rect x="403.733" y="58.667" width="16.533" height="45.867" fill="#3d4d8a"/>
<rect x="420.267" y="58.667" width="16.533" height="45.867" fill="#2f6b8e"/>
<rect x="436.8" y="58.667" width="16.533" height="45.867" fill="#20928c"/>
<rect x="453.333" y="58.667" width="16.533" height="45.867" fill="#37b878"/>
<rect x="469.867" y="58.667" width="16.533" height="45.867" fill="#6acd5b"/>
<rect x="89.6" y="104.533" width="16.533" height="45.867" fill="#21908d"/>
<rect x="106.133" y="104.533" width="16.533" height="45.867" fill="#68cc5c"/>
<rect x="122.667" y="104.533" width="16.533" height="45.867" fill="#dbe319"/>
<rect x="139.2" y="104.533" width="16.533" height="45.867" fill="#e8e419"/>
<rect x="155.733" y="104.533" width="16.533" height="45.867" fill="#89d548"/>
<rect x="172.267" y="104.533" width="16.533" height="45.867" fill="#1fa188"/>
<rect x="188.8" y="104.533" width="16.533" height="45.867" fill="#365c8d"/>
<rect x="205.333" y="104.533" width="16.533" height="45.867" fill="#481e70"/>
<rect x="221.867" y="104.533" width="16.533" height="45.867" fill="#46095c"/>
<rect x="238.4" y="104.533" width="16.533" height="45.867" fill="#472e7c"/>
<rect x="254.933" y="104.533" width="16.533" height="45.867" fill="#2d708e"/>
<rect x="271.467" y="104.533" width="16.533" height="45.867" fill="#2eb37c"/>
<rect x="288" y="104.533" width="16.533" height="45.867" fill="#aedc30"/>
<rect x="304.533" y="104.533" width="16.533" height="45.867" fill="#f0e51d"/>
<rect x="321.067" y="104.533" width="16.533" height="45.867" fill="#c2df23"/>
<rect x="337.6" y="104.533" width="16.533" height="45.867" fill="#42be71"/>
<rect x="354.133" y="104.533" width="16.533" height="45.867" fill="#287c8e"/>
<rect x="370.667" y="104.533" width="16.533" height="45.867" fill="#443983"/>
<rect x="387.2" y="104.533" width="16.533" height="45.867" fill="#460c5f"/>
<rect x="403.733" y="104.533" width="16.533" height="45.867" fill="#481769"/>
<rect x="420.267" y="104.533" width="16.533" height="45.867" fill="#3c508b"/>
<rect x="436.8" y="104.533" width="16.533" height="45.867" fill="#20938c"/>
<rect x="453.333" y="104.533" width="16.533" height="45.867" fill="#70cf57"/>
<rect x="469.867" y="104.533" width="16.533" height="45.867" fill="#dfe318"/>
<rect x="89.6" y="150.4" width="16.533" height="45.867" fill="#21908d"/>
<rect x="106.133" y="150.4" width="16.533" height="45.867" fill="#6fcf57"/>
<rect x="122.667" y="150.4" width="16.533" height="45.867" fill="#e8e419"/>
<rect x="139.2" y="150.4" width="16.533" height="45.867" fill="#f6e620"/>
<rect x="155.733" y="150.4" width="16.533" height="45.867" fill="#92d742"/>
<rect x="172.267" y="150.4" width="16.533" height="45.867" fill="#1fa188"/>
<rect x="188.8" y="150.4" width="16.533" height="45.867" fill="#375a8c"/>
<rect x="205.333" y="150.4" width="16.533" height="45.867" fill="#48186a"/>
<rect x="221.867" y="150.4" width="16.533" height="45.867" fill="#440154"/>
<rect x="238.4" y="150.4" width="16.533" height="45.867" fill="#482979"/>
<rect x="254.933" y="150.4" width="16.533" height="45.867" fill="#2e6f8e"/>
<rect x="271.467" y="150.4" width="16.533" height="45.867" fill="#31b57b"/>
<rect x="288" y="150.4" width="16.533" height="45.867" fill="#bade28"/>
<rect x="304.533" y="150.4" width="16.533" height="45.867" fill="#fde725"/>
<rect x="321.067" y="150.4" width="16.533" height="45.867" fill="#cfe11c"/>
<rect x="337.6" y="150.4" width="16.533" height="45.867" fill="#46c06f"/>
<rect x="354.133" y="150.4" width="16.533" height="45.867" fill="#297b8e"/>
<rect x="370.667" y="150.4" width="16.533" height="45.867" fill="#463480"/>
<rect x="387.2" y="150.4" width="16.533" height="45.867" fill="#450457"/>
<rect x="403.733" y="150.4" width="16.533" height="45.867" fill="#471063"/>
<rect x="420.267" y="150.4" width="16.533" height="45.867" fill="#3d4d8a"/>
<rect x="436.8" y="150.4" width="16.533" height="45.867" fill="#1f948c"/>
<rect x="453.333" y="150.4" width="16.533" height="45.867" fill="#77d153"/>
<rect x="469.867" y="150.4" width="16.533" height="45.867" fill="#ece51b"/>
<rect x="89.6" y="196.267" width="16.533" height="45.867" fill="#21908d"/>
<rect x="106.133" y="196.267" width="16.533" height="45.867" fill="#41bd72"/>
<rect x="122.667" y="196.267" width="16.533" height="45.867" fill="#89d548"/>
<rect x="139.2" y="196.267" width="16.533" height="45.867" fill="#92d742"/>
<rect x="155.733" y="196.267" width="16.533" height="45.867" fill="#54c568"/>
<rect x="172.267" y="196.267" width="16.533" height="45.867" fill="#1e9c89"/>
<rect x="188.8" y="196.267" width="16.533" height="45.867" fill="#2f6b8e"/>
<rect x="205.333" y="196.267" width="16.533" height="45.867" fill="#414287"/>
<rect x="221.867" y="196.267" width="16.533" height="45.867" fill="#453581"/>
<rect x="238.4" y="196.267" width="16.533" height="45.867" fill="#3d4d8a"/>
<rect x="254.933" y="196.267" width="16.533" height="45.867" fill="#29798e"/>
<rect x="271.467" y="196.267" width="16.533" height="45.867" fill="#24aa83"/>
<rect x="288" y="196.267" width="16.533" height="45.867" fill="#6bcd5a"/>
<rect x="304.533" y="196.267" width="16.533" height="45.867" fill="#98d83e"/>
<rect x="321.067" y="196.267" width="16.533" height="45.867" fill="#77d153"/>
<rect x="337.6" y="196.267" width="16.533" height="45.867" fill="#2db27d"/>
<rect x="354.133" y="196.267" width="16.533" height="45.867" fill="#26828e"/>
<rect x="370.667" y="196.267" width="16.533" height="45.867" fill="#3a538b"/>
<rect x="387.2" y="196.267" width="16.533" height="45.867" fill="#453781"/>
<rect x="403.733" y="196.267" width="16.533" height="45.867" fill="#433e85"/>
<rect x="420.267" y="196.267" width="16.533" height="45.867" fill="#33638d"/>
<rect x="436.8" y="196.267" width="16.533" height="45.867" fill="#20928c"/>
<rect x="453.333" y="196.267" width="16.533" height="45.867" fill="#46c06f"/>
<rect x="469.867" y="196.267" width="16.533" height="45.867" fill="#8bd646"/>
<rect x="89.6" y="242.133" width="16.533" height="45.867" fill="#21908d"/>
<rect x="106.133" y="242.133" width="16.533" height="45.867" fill="#1f9a8a"/>
<rect x="122.667" y="242.133" width="16.533" height="45.867" fill="#1fa188"/>
<rect x="139.2" y="242.133" width="16.533" height="45.867" fill="#1fa188"/>
<rect x="155.733" y="242.133" width="16.533" height="45.867" fill="#1e9c89"/>
<rect x="172.267" y="242.133" width="16.533" height="45.867" fill="#20928c"/>
<rect x="188.8" y="242.133" width="16.533" height="45.867" fill="#23888e"/>
<rect x="205.333" y="242.133" width="16.533" height="45.867" fill="#26818e"/>
<rect x="221.867" y="242.133" width="16.533" height="45.867" fill="#277f8e"/>
<rect x="238.4" y="242.133" width="16.533" height="45.867" fill="#26828e"/>
<rect x="254.933" y="242.133" width="16.533" height="45.867" fill="#228b8d"/>
<rect x="271.467" y="242.133" width="16.533" height="45.867" fill="#1f958b"/>
<rect x="288" y="242.133" width="16.533" height="45.867" fill="#1f9e89"/>
<rect x="304.533" y="242.133" width="16.533" height="45.867" fill="#1fa187"/>
<rect x="321.067" y="242.133" width="16.533" height="45.867" fill="#1f9f88"/>
<rect x="337.6" y="242.133" width="16.533" height="45.867" fill="#1f978b"/>
<rect x="354.133" y="242.133" width="16.533" height="45.867" fill="#228d8d"/>
<rect x="370.667" y="242.133" width="16.533" height="45.867" fill="#25838e"/>
<rect x="387.2" y="242.133" width="16.533" height="45.867" fill="#277f8e"/>
<rect x="403.733" y="242.133" width="16.533" height="45.867" fill="#27808e"/>
<rect x="420.267" y="242.133" width="16.533" height="45.867" fill="#24868e"/>
<rect x="436.8" y="242.133" width="16.533" height="45.867" fill="#21918c"/>
<rect x="453.333" y="242.133" width="16.533" height="45.867" fill="#1f9a8a"/>
<rect x="469.867" y="242.133" width="16.533" height="45.867" fill="#1fa188"/>
<path d="M210.365 86.381 L201.204 122.88" fill="none" stroke="#e69f00" stroke-width="2"/>
<path d="M227.617 73.483 L210.365 86.381" fill="none" stroke="#e69f00" stroke-width="2"/>
<path d="M244.87 99.569 L227.617 73.483" fill="none" stroke="#e69f00" stroke-width="2"/>
<path d="M249.381 122.88 L244.87 99.569" fill="none" stroke="#e69f00" stroke-width="2"/>
<path d="M382.887 111.683 L381.045 122.88" fill="none" stroke="#e69f00" stroke-width="2"/>
<path d="M400.139 74.884 L382.887 111.683" fill="none" stroke="#e69f00" stroke-width="2"/>
<path d="M417.391 81.025 L400.139 74.884" fill="none" stroke="#e69f00" stroke-width="2"/>
<path d="M429.813 122.88 L417.391 81.025" fill="none" stroke="#e69f00" stroke-width="2"/>
<path d="M201.204 122.88 L200.093 177.92" fill="none" stroke="#e69f00" stroke-width="2"/>
<path d="M249.381 122.88 L250.348 177.92" fill="none" stroke="#e69f00" stroke-width="2"/>
<path d="M381.045 122.88 L380.137 177.92" fill="none" stroke="#e69f00" stroke-width="2"/>
<path d="M429.813 122.88 L431.058 177.92" fill="none" stroke="#e69f00" stroke-width="2"/>
<path d="M200.093 177.92 L210.365 230.572" fill="none" stroke="#e69f00" stroke-width="2"/>
<path d="M212.678 232.96 L210.365 230.572" fill="none" stroke="#e69f00" stroke-width="2"/>
<path d="M244.87 214.335 L235.949 232.96" fill="none" stroke="#e69f00" stroke-width="2"/>
<path d="M250.348 177.92 L244.87 214.335" fill="none" stroke="#e69f00" stroke-width="2"/>
<path d="M380.137 177.92 L382.887 199.419" fill="none" stroke="#e69f00" stroke-width="2"/>
<path d="M394.452 232.96 L382.887 199.419" fill="none" stroke="#e69f00" stroke-width="2"/>
<path d="M431.058 177.92 L418.791 232.96" fill="none" stroke="#e69f00" stroke-width="2"/>
<path d="M212.678 232.96 L227.617 240.495" fill="none" stroke="#e69f00" stroke-width="2"/>
<path d="M235.949 232.96 L227.617 240.495" fill="none" stroke="#e69f00" stroke-width="2"/>
<path d="M394.452 232.96 L400.139 239.532" fill="none" stroke="#e69f00" stroke-width="2"/>
<path d="M417.391 235.31 L400.139 239.532" fill="none" stroke="#e69f00" stroke-width="2"/>
<path d="M418.791 232.96 L417.391 235.31" fill="none" stroke="#e69f00" stroke-width="2"/>
<path d="M193.113 56.856 L190.503 67.84" fill="none" stroke="#e69f00" stroke-width="2"/>
<path d="M210.365 35.168 L193.113 56.856" fill="none" stroke="#e69f00" stroke-width="2"/>
<path d="M227.617 32.371 L210.365 35.168" fill="none" stroke="#e69f00" stroke-width="2"/>
<path d="M244.87 38.028 L227.617 32.371" fill="none" stroke="#e69f00" stroke-width="2"/>
<path d="M259.506 67.84 L244.87 38.028" fill="none" stroke="#e69f00" stroke-width="2"/>
<path d="M382.887 40.656 L371.54 67.84" fill="none" stroke="#e69f00" stroke-width="2"/>
<path d="M400.139 32.674 L382.887 40.656" fill="none" stroke="#e69f00" stroke-width="2"/>
<path d="M417.391 34.006 L400.139 32.674" fill="none" stroke="#e69f00" stroke-width="2"/>
<path d="M434.643 49.133 L417.391 34.006" fill="none" stroke="#e69f00" stroke-width="2"/>
<path d="M440.161 67.84 L434.643 49.133" fill="none" stroke="#e69f00" stroke-width="2"/>
<path d="M190.503 67.84 L186.375 122.88" fill="none" stroke="#e69f00" stroke-width="2"/>
<path d="M259.506 67.84 L262.122 90.482" fill="none" stroke="#e69f00" stroke-width="2"/>
<path d="M264.014 122.88 L262.122 90.482" fill="none" stroke="#e69f00" stroke-width="2"/>
<path d="M371.54 67.84 L366.956 122.88" fill="none" stroke="#e69f00" stroke-width="2"/>
<path d="M440.161 67.84 L444.386 122.88" fill="none" stroke="#e69f00" stroke-width="2"/>
<path d="M186.375 122.88 L186.103 177.92" fill="none" stroke="#e69f00" stroke-width="2"/>
<path d="M264.014 122.88 L264.283 177.92" fill="none" stroke="#e69f00" stroke-width="2"/>
<path d="M366.956 122.88 L366.654 177.92" fill="none" stroke="#e69f00" stroke-width="2"/>
<path d="M444.386 122.88 L444.665 177.92" fill="none" stroke="#e69f00" stroke-width="2"/>
<path d="M186.103 177.92 L188.785 232.96" fill="none" stroke="#e69f00" stroke-width="2"/>
<path d="M262.122 225.523 L261.539 232.96" fill="none" stroke="#e69f00" stroke-width="2"/>
<path d="M264.283 177.92 L262.122 225.523" fill="none" stroke="#e69f00" stroke-width="2"/>
<path d="M366.654 177.92 L369.632 232.96" fill="none" stroke="#e69f00" stroke-width="2"/>
<path d="M444.665 177.92 L441.92 232.96" fill="none" stroke="#e69f00" stroke-width="2"/>
<path d="M188.785 232.96 L193.113 255.982" fill="none" stroke="#e69f00" stroke-width="2"/>
<path d="M210.365 278.9 L193.113 255.982" fill="none" stroke="#e69f00" stroke-width="2"/>
<path d="M227.617 281.856 L210.365 278.9" fill="none" stroke="#e69f00" stroke-width="2"/>
<path d="M244.87 275.877 L227.617 281.856" fill="none" stroke="#e69f00" stroke-width="2"/>
<path d="M261.539 232.96 L244.87 275.877" fill="none" stroke="#e69f00" stroke-width="2"/>
<path d="M369.632 232.96 L382.887 273.101" fill="none" stroke="#e69f00" stroke-width="2"/>
<path d="M400.139 281.535 L382.887 273.101" fill="none" stroke="#e69f00" stroke-width="2"/>
<path d="M417.391 280.127 L400.139 281.535" fill="none" stroke="#e69f00" stroke-width="2"/>
<path d="M434.643 264.142 L417.391 280.127" fill="none" stroke="#e69f00" stroke-width="2"/>
<path d="M441.92 232.96 L434.643 264.142" fill="none" stroke="#e69f00" stroke-width="2"/>
<path d="M106.852 47.327 L100.422 67.84" fill="none" stroke="#e69f00" stroke-width="2"/>
<path d="M124.104 33.717 L106.852 47.327" fill="none" stroke="#e69f00" stroke-width="2"/>
<path d="M141.357 32.819 L124.104 33.717" fill="none" stroke="#e69f00" stroke-width="2"/>
<path d="M158.609 41.662 L141.357 32.819" fill="none" stroke="#e69f00" stroke-width="2"/>
<path d="M168.981 67.84 L158.609 41.662" fill="none" stroke="#e69f00" stroke-width="2"/>
<path d="M296.626 37.364 L280.901 67.84" fill="none" stroke="#e69f00" stroke-width="2"/>
<path d="M313.878 32.324 L296.626 37.364" fill="none" stroke="#e69f00" stroke-width="2"/>
<path d="M331.13 35.612 L313.878 32.324" fill="none" stroke="#e69f00" stroke-width="2"/>
<path d="M348.383 60.106 L331.13 35.612" fill="none" stroke="#e69f00" stroke-width="2"/>
<path d="M350.086 67.84 L348.383 60.106" fill="none" stroke="#e69f00" stroke-width="2"/>
<path d="M469.148 45.728 L461.799 67.84" fill="none" stroke="#e69f00" stroke-width="2"/>
<path d="M486.4 33.459 L469.148 45.728" fill="none" stroke="#e69f00" stroke-width="2"/>
<path d="M100.422 67.84 L96.156 122.88" fill="none" stroke="#e69f00" stroke-width="2"/>
<path d="M168.981 67.84 L173.489 122.88" fill="none" stroke="#e69f00" stroke-width="2"/>
<path d="M279.374 79.424 L276.543 122.88" fill="none" stroke="#e69f00" stroke-width="2"/>
<path d="M280.901 67.84 L279.374 79.424" fill="none" stroke="#e69f00" stroke-width="2"/>
<path d="M350.086 67.84 L354.194 122.88" fill="none" stroke="#e69f00" stroke-width="2"/>
<path d="M461.799 67.84 L457.486 122.88" fill="none" stroke="#e69f00" stroke-width="2"/>
<path d="M96.156 122.88 L95.875 177.92" fill="none" stroke="#e69f00" stroke-width="2"/>
<path d="M173.489 122.88 L173.786 177.92" fill="none" stroke="#e69f00" stroke-width="2"/>
<path d="M276.543 122.88 L276.274 177.92" fill="none" stroke="#e69f00" stroke-width="2"/>
<path d="M354.194 122.88 L354.465 177.92" fill="none" stroke="#e69f00" stroke-width="2"/>
<path d="M457.486 122.88 L457.201 177.92" fill="none" stroke="#e69f00" stroke-width="2"/>
<path d="M95.875 177.92 L98.647 232.96" fill="none" stroke="#e69f00" stroke-width="2"/>
<path d="M173.786 177.92 L170.857 232.96" fill="none" stroke="#e69f00" stroke-width="2"/>
<path d="M276.274 177.92 L278.923 232.96" fill="none" stroke="#e69f00" stroke-width="2"/>
<path d="M354.465 177.92 L351.796 232.96" fill="none" stroke="#e69f00" stroke-width="2"/>
<path d="M457.201 177.92 L460.004 232.96" fill="none" stroke="#e69f00" stroke-width="2"/>
<path d="M98.647 232.96 L106.852 266.051" fill="none" stroke="#e69f00" stroke-width="2"/>
<path d="M124.104 280.433 L106.852 266.051" fill="none" stroke="#e69f00" stroke-width="2"/>
<path d="M141.357 281.382 L124.104 280.433" fill="none" stroke="#e69f00" stroke-width="2"/>
<path d="M158.609 272.037 L141.357 281.382" fill="none" stroke="#e69f00" stroke-width="2"/>
<path d="M170.857 232.96 L158.609 272.037" fill="none" stroke="#e69f00" stroke-width="2"/>
<path d="M278.923 232.96 L279.374 236.41" fill="none" stroke="#e69f00" stroke-width="2"/>
<path d="M296.626 276.579 L279.374 236.41" fill="none" stroke="#e69f00" stroke-width="2"/>
<path d="M313.878 281.905 L296.626 276.579" fill="none" stroke="#e69f00" stroke-width="2"/>
<path d="M331.13 278.43 L313.878 281.905" fill="none" stroke="#e69f00" stroke-width="2"/>
<path d="M348.383 252.548 L331.13 278.43" fill="none" stroke="#e69f00" stroke-width="2"/>
<path d="M351.796 232.96 L348.383 252.548" fill="none" stroke="#e69f00" stroke-width="2"/>
<path d="M460.004 232.96 L469.148 267.741" fill="none" stroke="#e69f00" stroke-width="2"/>
<path d="M486.4 280.706 L469.148 267.741" fill="none" stroke="#e69f00" stroke-width="2"/>
<path d="M124.104 79.691 L110.567 122.88" fill="none" stroke="#e69f00" stroke-width="2"/>
<path d="M141.357 75.551 L124.104 79.691" fill="none" stroke="#e69f00" stroke-width="2"/>
<path d="M158.609 116.324 L141.357 75.551" fill="none" stroke="#e69f00" stroke-width="2"/>
<path d="M159.633 122.88 L158.609 116.324" fill="none" stroke="#e69f00" stroke-width="2"/>
<path d="M296.626 96.505 L291.261 122.88" fill="none" stroke="#e69f00" stroke-width="2"/>
<path d="M313.878 73.268 L296.626 96.505" fill="none" stroke="#e69f00" stroke-width="2"/>
<path d="M331.13 88.43 L313.878 73.268" fill="none" stroke="#e69f00" stroke-width="2"/>
<path d="M339.351 122.88 L331.13 88.43" fill="none" stroke="#e69f00" stroke-width="2"/>
<path d="M486.4 78.5 L471.683 122.88" fill="none" stroke="#e69f00" stroke-width="2"/>
<path d="M110.567 122.88 L109.269 177.92" fill="none" stroke="#e69f00" stroke-width="2"/>
<path d="M159.633 122.88 L160.525 177.92" fill="none" stroke="#e69f00" stroke-width="2"/>
<path d="M291.261 122.88 L290.273 177.92" fill="none" stroke="#e69f00" stroke-width="2"/>
<path d="M339.351 122.88 L340.429 177.92" fill="none" stroke="#e69f00" stroke-width="2"/>
<path d="M471.683 122.88 L470.327 177.92" fill="none" stroke="#e69f00" stroke-width="2"/>
<path d="M109.269 177.92 L122.049 232.96" fill="none" stroke="#e69f00" stroke-width="2"/>
<path d="M158.609 193.704 L146.304 232.96" fill="none" stroke="#e69f00" stroke-width="2"/>
<path d="M160.525 177.92 L158.609 193.704" fill="none" stroke="#e69f00" stroke-width="2"/>
<path d="M290.273 177.92 L296.626 218.107" fill="none" stroke="#e69f00" stroke-width="2"/>
<path d="M304.593 232.96 L296.626 218.107" fill="none" stroke="#e69f00" stroke-width="2"/>
<path d="M331.13 228.05 L327.094 232.96" fill="none" stroke="#e69f00" stroke-width="2"/>
<path d="M340.429 177.92 L331.13 228.05" fill="none" stroke="#e69f00" stroke-width="2"/>
<path d="M470.327 177.92 L483.681 232.96" fill="none" stroke="#e69f00" stroke-width="2"/>
<path d="M122.049 232.96 L124.104 236.227" fill="none" stroke="#e69f00" stroke-width="2"/>
<path d="M141.357 239.073 L124.104 236.227" fill="none" stroke="#e69f00" stroke-width="2"/>
<path d="M146.304 232.96 L141.357 239.073" fill="none" stroke="#e69f00" stroke-width="2"/>
<path d="M304.593 232.96 L313.878 240.643" fill="none" stroke="#e69f00" stroke-width="2"/>
<path d="M327.094 232.96 L313.878 240.643" fill="none" stroke="#e69f00" stroke-width="2"/>
<path d="M483.681 232.96 L486.4 237.046" fill="none" stroke="#e69f00" stroke-width="2"/>
<path d="M96.286 15.564 L99.447 55.902" fill="none" stroke="#fde725" stroke-width="2"/>
<path d="M96.945 48.265 L99.447 55.902 L100.58 46.073" fill="none" stroke="#fde725" stroke-width="2"/>
<path d="M161.647 16.153 L166.353 55.314" fill="none" stroke="#37b878" stroke-width="2"/>
<path d="M163.569 48.467 L166.353 55.314 L167.099 45.204" fill="none" stroke="#37b878" stroke-width="2"/>
<path d="M225.809 18.938 L234.458 52.529" fill="none" stroke="#2d708e" stroke-width="2"/>
<path d="M231.072 48.255 L234.458 52.529 L234.099 42.257" fill="none" stroke="#2d708e" stroke-width="2"/>
<path d="M288.971 39.781 L303.562 31.685" fill="none" stroke="#3f4889" stroke-width="2"/>
<path d="M300.768 38.498 L303.562 31.685 L300.038 28.378" fill="none" stroke="#3f4889" stroke-width="2"/>
<path d="M358.787 53.776 L366.013 17.691" fill="none" stroke="#26828e" stroke-width="2"/>
<path d="M366.075 28.009 L366.013 17.691 L362.823 22.997" fill="none" stroke="#26828e" stroke-width="2"/>
<path d="M426.434 55.535 L430.633 15.932" fill="none" stroke="#5ec962" stroke-width="2"/>
<path d="M431.508 25.962 L430.633 15.932 L427.939 23.05" fill="none" stroke="#5ec962" stroke-width="2"/>
<path d="M146.174 61.274 L148.76 101.926" fill="none" stroke="#54c568" stroke-width="2"/>
<path d="M146.368 94.021 L148.76 101.926 L150.031 92.228" fill="none" stroke="#54c568" stroke-width="2"/>
<path d="M211.247 62.019 L215.953 101.181" fill="none" stroke="#29798e" stroke-width="2"/>
<path d="M213.169 94.334 L215.953 101.181 L216.699 91.07" fill="none" stroke="#29798e" stroke-width="2"/>
<path d="M272.675 75.073 L286.792 88.127" fill="none" stroke="#472f7d" stroke-width="2"/>
<path d="M283.147 90.196 L286.792 88.127 L284.323 80.405" fill="none" stroke="#472f7d" stroke-width="2"/>
<path d="M342.936 100.571 L348.797 62.629" fill="none" stroke="#31668e" stroke-width="2"/>
<path d="M349.238 72.876 L348.797 62.629 L345.819 68.811" fill="none" stroke="#31668e" stroke-width="2"/>
<path d="M410.541 101.839 L413.459 61.361" fill="none" stroke="#2fb47c" stroke-width="2"/>
<path d="M414.651 71.137 L413.459 61.361 L411.003 69.113" fill="none" stroke="#2fb47c" stroke-width="2"/>
<path d="M477.171 102.067 L479.096 61.133" fill="none" stroke="#f5e61f" stroke-width="2"/>
<path d="M480.523 70.663 L479.096 61.133 L476.835 69.328" fill="none" stroke="#f5e61f" stroke-width="2"/>
<path d="M130.542 106.855 L131.324 148.078" fill="none" stroke="#7fd34e" stroke-width="2"/>
<path d="M129.298 139.424 L131.324 148.078 L133.012 138.882" fill="none" stroke="#7fd34e" stroke-width="2"/>
<path d="M196.393 106.911 L197.74 148.022" fill="none" stroke="#23898e" stroke-width="2"/>
<path d="M195.596 139.588 L197.74 148.022 L199.301 138.654" fill="none" stroke="#23898e" stroke-width="2"/>
<path d="M260.847 107.886 L265.553 147.047" fill="none" stroke="#472f7d" stroke-width="2"/>
<path d="M262.769 140.2 L265.553 147.047 L266.299 136.937" fill="none" stroke="#472f7d" stroke-width="2"/>
<path d="M327.874 147.706 L330.792 107.227" fill="none" stroke="#3f4889" stroke-width="2"/>
<path d="M331.985 117.003 L330.792 107.227 L328.337 114.979" fill="none" stroke="#3f4889" stroke-width="2"/>
<path d="M394.896 148.046 L396.037 106.887" fill="none" stroke="#1e9d89" stroke-width="2"/>
<path d="M397.645 116.194 L396.037 106.887 L393.936 115.403" fill="none" stroke="#1e9d89" stroke-width="2"/>
<path d="M461.246 148.083 L461.954 106.85" fill="none" stroke="#b7de29" stroke-width="2"/>
<path d="M463.659 116.023 L461.954 106.85 L459.943 115.532" fill="none" stroke="#b7de29" stroke-width="2"/>
<path d="M114.754 152.717 L114.046 193.95" fill="none" stroke="#b7de29" stroke-width="2"/>
<path d="M112.341 184.777 L114.046 193.95 L116.057 185.268" fill="none" stroke="#b7de29" stroke-width="2"/>
<path d="M181.104 152.754 L179.963 193.913" fill="none" stroke="#1e9d89" stroke-width="2"/>
<path d="M178.355 184.606 L179.963 193.913 L182.064 185.397" fill="none" stroke="#1e9d89" stroke-width="2"/>
<path d="M248.126 153.094 L245.208 193.573" fill="none" stroke="#3f4889" stroke-width="2"/>
<path d="M244.015 183.797 L245.208 193.573 L247.663 185.821" fill="none" stroke="#3f4889" stroke-width="2"/>
<path d="M315.153 192.914 L310.447 153.753" fill="none" stroke="#472f7d" stroke-width="2"/>
<path d="M313.231 160.6 L310.447 153.753 L309.701 163.863" fill="none" stroke="#472f7d" stroke-width="2"/>
<path d="M379.607 193.889 L378.26 152.778" fill="none" stroke="#23898e" stroke-width="2"/>
<path d="M380.404 161.212 L378.26 152.778 L376.699 162.146" fill="none" stroke="#23898e" stroke-width="2"/>
<path d="M445.458 193.945 L444.676 152.722" fill="none" stroke="#7fd34e" stroke-width="2"/>
<path d="M446.702 161.376 L444.676 152.722 L442.988 161.918" fill="none" stroke="#7fd34e" stroke-width="2"/>
<path d="M98.829 198.733 L96.904 239.667" fill="none" stroke="#f5e61f" stroke-width="2"/>
<path d="M95.477 230.137 L96.904 239.667 L99.165 231.472" fill="none" stroke="#f5e61f" stroke-width="2"/>
<path d="M165.459 198.961 L162.541 239.439" fill="none" stroke="#2fb47c" stroke-width="2"/>
<path d="M161.349 229.663 L162.541 239.439 L164.997 231.687" fill="none" stroke="#2fb47c" stroke-width="2"/>
<path d="M233.064 200.229 L227.203 238.171" fill="none" stroke="#31668e" stroke-width="2"/>
<path d="M226.762 227.924 L227.203 238.171 L230.181 231.989" fill="none" stroke="#31668e" stroke-width="2"/>
<path d="M303.325 225.727 L289.208 212.673" fill="none" stroke="#472f7d" stroke-width="2"/>
<path d="M292.853 210.604 L289.208 212.673 L291.677 220.395" fill="none" stroke="#472f7d" stroke-width="2"/>
<path d="M364.753 238.781 L360.047 199.619" fill="none" stroke="#29798e" stroke-width="2"/>
<path d="M362.831 206.466 L360.047 199.619 L359.301 209.73" fill="none" stroke="#29798e" stroke-width="2"/>
<path d="M429.826 239.526 L427.24 198.874" fill="none" stroke="#54c568" stroke-width="2"/>
<path d="M429.632 206.779 L427.24 198.874 L425.969 208.572" fill="none" stroke="#54c568" stroke-width="2"/>
<path d="M149.566 245.265 L145.367 284.868" fill="none" stroke="#5ec962" stroke-width="2"/>
<path d="M144.492 274.838 L145.367 284.868 L148.061 277.75" fill="none" stroke="#5ec962" stroke-width="2"/>
<path d="M217.213 247.024 L209.987 283.109" fill="none" stroke="#26828e" stroke-width="2"/>
<path d="M209.925 272.791 L209.987 283.109 L213.177 277.803" fill="none" stroke="#26828e" stroke-width="2"/>
<path d="M287.029 261.019 L272.438 269.115" fill="none" stroke="#3f4889" stroke-width="2"/>
<path d="M275.232 262.302 L272.438 269.115 L275.962 272.422" fill="none" stroke="#3f4889" stroke-width="2"/>
<path d="M350.191 281.862 L341.542 248.271" fill="none" stroke="#2d708e" stroke-width="2"/>
<path d="M344.928 252.545 L341.542 248.271 L341.901 258.543" fill="none" stroke="#2d708e" stroke-width="2"/>
<path d="M414.353 284.647 L409.647 245.486" fill="none" stroke="#37b878" stroke-width="2"/>
<path d="M412.431 252.333 L409.647 245.486 L408.901 255.596" fill="none" stroke="#37b878" stroke-width="2"/>
<path d="M479.714 285.236 L476.553 244.898" fill="none" stroke="#fde725" stroke-width="2"/>
<path d="M479.055 252.535 L476.553 244.898 L475.42 254.727" fill="none" stroke="#fde725" stroke-width="2"/>
</svg>
