<svg xmlns="http://www.w3.org/2000/svg" viewBox="0 0 640 320" width="640" height="320">
<rect width="100%" height="100%" fill="#141414"/>
<rect x="89.6" y="12.8" width="26.24" height="34.4" fill="#21908d"/>
<rect x="115.84" y="12.8" width="26.24" height="34.4" fill="#24aa83"/>
<rect x="142.08" y="12.8" width="26.24" height="34.4" fill="#49c16d"/>
<rect x="168.32" y="12.8" width="26.24" height="34.4" fill="#7ed34f"/>
<rect x="194.56" y="12.8" width="26.24" height="34.4" fill="#b2dd2d"/>
<rect x="220.8" y="12.8" width="26.24" height="34.4" fill="#dae319"/>
<rect x="247.04" y="12.8" width="26.24" height="34.4" fill="#f4e61e"/>
<rect x="273.28" y="12.8" width="26.24" height="34.4" fill="#fde725"/>
<rect x="299.52" y="12.8" width="26.24" height="34.4" fill="#f8e621"/>
<rect x="325.76" y="12.8" width="26.24" height="34.4" fill="#e4e419"/>
<rect x="352" y="12.8" width="26.24" height="34.4" fill="#bfdf25"/>
<rect x="378.24" y="12.8" width="26.24" height="34.4" fill="#8dd645"/>
<rect x="404.48" y="12.8" width="26.24" height="34.4" fill="#57c766"/>
<rect x="430.72" y="12.8" width="26.24" height="34.4" fill="#2cb17e"/>
<rect x="456.96" y="12.8" width="26.24" height="34.4" fill="#1f978b"/>
<rect x="483.2" y="12.8" width="26.24" height="34.4" fill="#287d8e"/>
<rect x="509.44" y="12.8" width="26.24" height="34.4" fill="#33638d"/>
<rect x="535.68" y="12.8" width="26.24" height="34.4" fill="#3f4889"/>
<rect x="561.92" y="12.8" width="26.24" height="34.4" fill="#472f7d"/>
<rect x="588.16" y="12.8" width="26.24" height="34.4" fill="#481a6c"/>
<rect x="89.6" y="47.2" width="26.24" height="34.4" fill="#24aa83"/>
<rect x="115.84" y="47.2" width="26.24" height="34.4" fill="#49c16d"/>
<rect x="142.08" y="47.2" width="26.24" height="34.4" fill="#7ed34f"/>
<rect x="168.32" y="47.2" width="26.24" height="34.4" fill="#b2dd2d"/>
<rect x="194.56" y="47.2" width="26.24" height="34.4" fill="#dae319"/>
<rect x="220.8" y="47.2" width="26.24" height="34.4" fill="#f4e61e"/>
<rect x="247.04" y="47.2" width="26.24" height="34.4" fill="#fde725"/>
<rect x="273.28" y="47.2" width="26.24" height="34.4" fill="#f8e621"/>
<rect x="299.52" y="47.2" width="26.24" height="34.4" fill="#e4e419"/>
<rect x="325.76" y="47.2" width="26.24" height="34.4" fill="#bfdf25"/>
<rect x="352" y="47.2" width="26.24" height="34.4" fill="#8dd645"/>
<rect x="378.24" y="47.2" width="26.24" height="34.4" fill="#57c766"/>
<rect x="404.48" y="47.2" width="26.24" height="34.4" fill="#2cb17e"/>
<rect x="430.72" y="47.2" width="26.24" height="34.4" fill="#1f978b"/>
<rect x="456.96" y="47.2" width="26.24" height="34.4" fill="#287d8e"/>
<rect x="483.2" y="47.2" width="26.24" height="34.4" fill="#33638d"/>
<rect x="509.44" y="47.2" width="26.24" height="34.4" fill="#3f4889"/>
<rect x="535.68" y="47.2" width="26.24" height="34.4" fill="#472f7d"/>
<rect x="561.92" y="47.2" width="26.24" height="34.4" fill="#481a6c"/>
<rect x="588.16" y="47.2" width="26.24" height="34.4" fill="#46095d"/>
<rect x="89.6" y="81.6" width="26.24" height="34.4" fill="#49c16d"/>
<rect x="115.84" y="81.6" width="26.24" height="34.4" fill="#7ed34f"/>
<rect x="142.08" y="81.6" width="26.24" height="34.4" fill="#b2dd2d"/>
<rect x="168.32" y="81.6" width="26.24" height="34.4" fill="#dae319"/>
<rect x="194.56" y="81.6" width="26.24" height="34.4" fill="#f4e61e"/>
<rect x="220.8" y="81.6" width="26.24" height="34.4" fill="#fde725"/>
<rect x="247.04" y="81.6" width="26.24" height="34.4" fill="#f8e621"/>
<rect x="273.28" y="81.6" width="26.24" height="34.4" fill="#e4e419"/>
<rect x="299.52" y="81.6" width="26.24" height="34.4" fill="#bfdf25"/>
<rect x="325.76" y="81.6" width="26.24" height="34.4" fill="#8dd645"/>
<rect x="352" y="81.6" width="26.24" height="34.4" fill="#57c766"/>
<rect x="378.24" y="81.6" width="26.24" height="34.4" fill="#2cb17e"/>
<rect x="404.48" y="81.6" width="26.24" height="34.4" fill="#1f978b"/>
<rect x="430.72" y="81.6" width="26.24" height="34.4" fill="#287d8e"/>
<rect x="456.96" y="81.6" width="26.24" height="34.4" fill="#33638d"/>
<rect x="483.2" y="81.6" width="26.24" height="34.4" fill="#3f4889"/>
<rect x="509.44" y="81.6" width="26.24" height="34.4" fill="#472f7d"/>
<rect x="535.68" y="81.6" width="26.24" height="34.4" fill="#481a6c"/>
<rect x="561.92" y="81.6" width="26.24" height="34.4" fill="#46095d"/>
<rect x="588.16" y="81.6" width="26.24" height="34.4" fill="#440154"/>
<rect x="89.6" y="116" width="26.24" height="34.4" fill="#7ed34f"/>
<rect x="115.84" y="116" width="26.24" height="34.4" fill="#b2dd2d"/>
<rect x="142.08" y="116" width="26.24" height="34.4" fill="#dae319"/>
<rect x="168.32" y="116" width="26.24" height="34.4" fill="#f4e61e"/>
<rect x="194.56" y="116" width="26.24" height="34.4" fill="#fde725"/>
<rect x="220.8" y="116" width="26.24" height="34.4" fill="#f8e621"/>
<rect x="247.04" y="116" width="26.24" height="34.4" fill="#e4e419"/>
<rect x="273.28" y="116" width="26.24" height="34.4" fill="#bfdf25"/>
<rect x="299.52" y="116" width="26.24" height="34.4" fill="#8dd645"/>
<rect x="325.76" y="116" width="26.24" height="34.4" fill="#57c766"/>
<rect x="352" y="116" width="26.24" height="34.4" fill="#2cb17e"/>
<rect x="378.24" y="116" width="26.24" height="34.4" fill="#1f978b"/>
<rect x="404.48" y="116" width="26.24" height="34.4" fill="#287d8e"/>
<rect x="430.72" y="116" width="26.24" height="34.4" fill="#33638d"/>
<rect x="456.96" y="116" width="26.24" height="34.4" fill="#3f4889"/>
<rect x="483.2" y="116" width="26.24" height="34.4" fill="#472f7d"/>
<rect x="509.44" y="116" width="26.24" height="34.4" fill="#481a6c"/>
<rect x="535.68" y="116" width="26.24" height="34.4" fill="#46095d"/>
<rect x="561.92" y="116" width="26.24" height="34.4" fill="#440154"/>
<rect x="588.16" y="116" width="26.24" height="34.4" fill="#440155"/>
<rect x="89.6" y="150.4" width="26.24" height="34.4" fill="#b2dd2d"/>
<rect x="115.84" y="150.4" width="26.24" height="34.4" fill="#dae319"/>
<rect x="142.08" y="150.4" width="26.24" height="34.4" fill="#f4e61e"/>
<rect x="168.32" y="150.4" width="26.24" height="34.4" fill="#fde725"/>
<rect x="194.56" y="150.4" width="26.24" height="34.4" fill="#f8e621"/>
<rect x="220.8" y="150.4" width="26.24" height="34.4" fill="#e4e419"/>
<rect x="247.04" y="150.4" width="26.24" height="34.4" fill="#bfdf25"/>
<rect x="273.28" y="150.4" width="26.24" height="34.4" fill="#8dd645"/>
<rect x="299.52" y="150.4" width="26.24" height="34.4" fill="#57c766"/>
<rect x="325.76" y="150.4" width="26.24" height="34.4" fill="#2cb17e"/>
<rect x="352" y="150.4" width="26.24" height="34.4" fill="#1f978b"/>
<rect x="378.24" y="150.4" width="26.24" height="34.4" fill="#287d8e"/>
<rect x="404.48" y="150.4" width="26.24" height="34.4" fill="#33638d"/>
<rect x="430.72" y="150.4" width="26.24" height="34.4" fill="#3f4889"/>
<rect x="456.96" y="150.4" width="26.24" height="34.4" fill="#472f7d"/>
<rect x="483.2" y="150.4" width="26.24" height="34.4" fill="#481a6c"/>
<rect x="509.44" y="150.4" width="26.24" height="34.4" fill="#46095d"/>
<rect x="535.68" y="150.4" width="26.24" height="34.4" fill="#440154"/>
<rect x="561.92" y="150.4" width="26.24" height="34.4" fill="#440155"/>
<rect x="588.16" y="150.4" width="26.24" height="34.4" fill="#460b5e"/>
<rect x="89.6" y="184.8" width="26.24" height="34.4" fill="#dae319"/>
<rect x="115.84" y="184.8" width="26.24" height="34.4" fill="#f4e61e"/>
<rect x="142.08" y="184.8" width="26.24" height="34.4" fill="#fde725"/>
<rect x="168.32" y="184.8" width="26.24" height="34.4" fill="#f8e621"/>
<rect x="194.56" y="184.8" width="26.24" height="34.4" fill="#e4e419"/>
<rect x="220.8" y="184.8" width="26.24" height="34.4" fill="#bfdf25"/>
<rect x="247.04" y="184.8" width="26.24" height="34.4" fill="#8dd645"/>
<rect x="273.28" y="184.8" width="26.24" height="34.4" fill="#57c766"/>
<rect x="299.52" y="184.8" width="26.24" height="34.4" fill="#2cb17e"/>
<rect x="325.76" y="184.8" width="26.24" height="34.4" fill="#1f978b"/>
<rect x="352" y="184.8" width="26.24" height="34.4" fill="#287d8e"/>
<rect x="378.24" y="184.8" width="26.24" height="34.4" fill="#33638d"/>
<rect x="404.48" y="184.8" width="26.24" height="34.4" fill="#3f4889"/>
<rect x="430.72" y="184.8" width="26.24" height="34.4" fill="#472f7d"/>
<rect x="456.96" y="184.8" width="26.24" height="34.4" fill="#481a6c"/>
<rect x="483.2" y="184.8" width="26.24" height="34.4" fill="#46095d"/>
<rect x="509.44" y="184.8" width="26.24" height="34.4" fill="#440154"/>
<rect x="535.68" y="184.8" width="26.24" height="34.4" fill="#440155"/>
<rect x="561.92" y="184.8" width="26.24" height="34.4" fill="#460b5e"/>
<rect x="588.16" y="184.8" width="26.24" height="34.4" fill="#481c6e"/>
<rect x="89.6" y="219.2" width="26.24" height="34.4" fill="#f4e61e"/>
<rect x="115.84" y="219.2" width="26.24" height="34.4" fill="#fde725"/>
<rect x="142.08" y="219.2" width="26.24" height="34.4" fill="#f8e621"/>
<rect x="168.32" y="219.2" width="26.24" height="34.4" fill="#e4e419"/>
<rect x="194.56" y="219.2" width="26.24" height="34.4" fill="#bfdf25"/>
<rect x="220.8" y="219.2" width="26.24" height="34.4" fill="#8dd645"/>
<rect x="247.04" y="219.2" width="26.24" height="34.4" fill="#57c766"/>
<rect x="273.28" y="219.2" width="26.24" height="34.4" fill="#2cb17e"/>
<rect x="299.52" y="219.2" width="26.24" height="34.4" fill="#1f978b"/>
<rect x="325.76" y="219.2" width="26.24" height="34.4" fill="#287d8e"/>
<rect x="352" y="219.2" width="26.24" height="34.4" fill="#33638d"/>
<rect x="378.24" y="219.2" width="26.24" height="34.4" fill="#3f4889"/>
<rect x="404.48" y="219.2" width="26.24" height="34.4" fill="#472f7d"/>
<rect x="430.72" y="219.2" width="26.24" height="34.4" fill="#481a6c"/>
<rect x="456.96" y="219.2" width="26.24" height="34.4" fill="#46095d"/>
<rect x="483.2" y="219.2" width="26.24" height="34.4" fill="#440154"/>
<rect x="509.44" y="219.2" width="26.24" height="34.4" fill="#440155"/>
<rect x="535.68" y="219.2" width="26.24" height="34.4" fill="#460b5e"/>
<rect x="561.92" y="219.2" width="26.24" height="34.4" fill="#481c6e"/>
<rect x="588.16" y="219.2" width="26.24" height="34.4" fill="#46337f"/>
<rect x="89.6" y="253.6" width="26.24" height="34.4" fill="#fde725"/>
<rect x="115.84" y="253.6" width="26.24" height="34.4" fill="#f8e621"/>
<rect x="142.08" y="253.6" width="26.24" height="34.4" fill="#e4e419"/>
<rect x="168.32" y="253.6" width="26.24" height="34.4" fill="#bfdf25"/>
<rect x="194.56" y="253.6" width="26.24" height="34.4" fill="#8dd645"/>
<rect x="220.8" y="253.6" width="26.24" height="34.4" fill="#57c766"/>
<rect x="247.04" y="253.6" width="26.24" height="34.4" fill="#2cb17e"/>
<rect x="273.28" y="253.6" width="26.24" height="34.4" fill="#1f978b"/>
<rect x="299.52" y="253.6" width="26.24" height="34.4" fill="#287d8e"/>
<rect x="325.76" y="253.6" width="26.24" height="34.4" fill="#33638d"/>
<rect x="352" y="253.6" width="26.24" height="34.4" fill="#3f4889"/>
<rect x="378.24" y="253.6" width="26.24" height="34.4" fill="#472f7d"/>
<rect x="404.48" y="253.6" width="26.24" height="34.4" fill="#481a6c"/>
<rect x="430.72" y="253.6" width="26.24" height="34.4" fill="#46095d"/>
<rect x="456.96" y="253.6" width="26.24" height="34.4" fill="#440154"/>
<rect x="483.2" y="253.6" width="26.24" height="34.4" fill="#440155"/>
<rect x="509.44" y="253.6" width="26.24" height="34.4" fill="#460b5e"/>
<rect x="535.68" y="253.6" width="26.24" height="34.4" fill="#481c6e"/>
<rect x="561.92" y="253.6" width="26.24" height="34.4" fill="#46337f"/>
<rect x="588.16" y="253.6" width="26.24" height="34.4" fill="#3d4d8a"/>
</svg>
