<svg xmlns="http://www.w3.org/2000/svg" viewBox="0 0 640 320" width="640" height="320">
<rect width="100%" height="100%" fill="#141414"/>
<text x="149.6" y="316.8" text-anchor="end" font-size="12" font-family="monospace" fill="#626262">0.21</text>
<defs><linearGradient id="rsvgb" x1="0" y1="0" x2="1" y2="0"><stop offset="0" stop-color="#440154"/><stop offset="0.125" stop-color="#472d7b"/><stop offset="0.25" stop-color="#3b528b"/><stop offset="0.375" stop-color="#2c728e"/><stop offset="0.5" stop-color="#21918d"/><stop offset="0.625" stop-color="#27ad81"/><stop offset="0.75" stop-color="#5dc863"/><stop offset="0.875" stop-color="#aadc32"/><stop offset="1" stop-color="#fde725"/></linearGradient></defs>
<rect x="153.6" y="307.2" width="268.8" height="9.6" fill="url(#rsvgb)"/>
<text x="426.4" y="316.8" text-anchor="start" font-size="12" font-family="monospace" fill="#626262">100</text>
<clipPath id="isvgb-0"><rect x="0" y="18" width="83.6" height="24"/></clipPath>
<text x="83.6" y="34" text-anchor="end" clip-path="url(#isvgb-0)" font-size="12" font-family="monospace" fill="#626262">row0</text>
<clipPath id="isvgb-1"><rect x="0" y="52.4" width="83.6" height="24"/></clipPath>
<text x="83.6" y="68.4" text-anchor="end" clip-path="url(#isvgb-1)" font-size="12" font-family="monospace" fill="#626262">row1</text>
<clipPath id="isvgb-2"><rect x="0" y="86.8" width="83.6" height="24"/></clipPath>
<text x="83.6" y="102.8" text-anchor="end" clip-path="url(#isvgb-2)" font-size="12" font-family="monospace" fill="#626262">row2</text>
<clipPath id="isvgb-3"><rect x="0" y="121.2" width="83.6" height="24"/></clipPath>
<text x="83.6" y="137.2" text-anchor="end" clip-path="url(#isvgb-3)" font-size="12" font-family="monospace" fill="#626262">row3</text>
<clipPath id="isvgb-4"><rect x="0" y="155.6" width="83.6" height="24"/></clipPath>
<text x="83.6" y="171.6" text-anchor="end" clip-path="url(#isvgb-4)" font-size="12" font-family="monospace" fill="#626262">row4</text>
<clipPath id="isvgb-5"><rect x="0" y="190" width="83.6" height="24"/></clipPath>
<text x="83.6" y="206" text-anchor="end" clip-path="url(#isvgb-5)" font-size="12" font-family="monospace" fill="#626262">row5</text>
<clipPath id="isvgb-6"><rect x="0" y="224.4" width="83.6" height="24"/></clipPath>
<text x="83.6" y="240.4" text-anchor="end" clip-path="url(#isvgb-6)" font-size="12" font-family="monospace" fill="#626262">row6</text>
<clipPath id="isvgb-7"><rect x="0" y="258.8" width="83.6" height="24"/></clipPath>
<text x="83.6" y="274.8" text-anchor="end" clip-path="url(#isvgb-7)" font-size="12" font-family="monospace" fill="#626262">row7</text>
<rect x="89.6" y="12.8" width="19.84" height="34.4" fill="#21908d"/>
<rect x="109.44" y="12.8" width="19.84" height="34.4" fill="#24aa83"/>
<rect x="129.28" y="12.8" width="19.84" height="34.4" fill="#49c16d"/>
<rect x="149.12" y="12.8" width="19.84" height="34.4" fill="#7ed34f"/>
<rect x="168.96" y="12.8" width="19.84" height="34.4" fill="#b2dd2d"/>
<rect x="188.8" y="12.8" width="19.84" height="34.4" fill="#dae319"/>
<rect x="208.64" y="12.8" width="19.84" height="34.4" fill="#f4e61e"/>
<rect x="228.48" y="12.8" width="19.84" height="34.4" fill="#fde725"/>
<rect x="248.32" y="12.8" width="19.84" height="34.4" fill="#f8e621"/>
<rect x="268.16" y="12.8" width="19.84" height="34.4" fill="#e4e419"/>
<rect x="288" y="12.8" width="19.84" height="34.4" fill="#bfdf25"/>
<rect x="307.84" y="12.8" width="19.84" height="34.4" fill="#8dd645"/>
<rect x="327.68" y="12.8" width="19.84" height="34.4" fill="#57c766"/>
<rect x="347.52" y="12.8" width="19.84" height="34.4" fill="#2cb17e"/>
<rect x="367.36" y="12.8" width="19.84" height="34.4" fill="#1f978b"/>
<rect x="387.2" y="12.8" width="19.84" height="34.4" fill="#287d8e"/>
<rect x="407.04" y="12.8" width="19.84" height="34.4" fill="#33638d"/>
<rect x="426.88" y="12.8" width="19.84" height="34.4" fill="#3f4889"/>
<rect x="446.72" y="12.8" width="19.84" height="34.4" fill="#472f7d"/>
<rect x="466.56" y="12.8" width="19.84" height="34.4" fill="#481a6c"/>
<rect x="89.6" y="47.2" width="19.84" height="34.4" fill="#24aa83"/>
<rect x="109.44" y="47.2" width="19.84" height="34.4" fill="#49c16d"/>
<rect x="129.28" y="47.2" width="19.84" height="34.4" fill="#7ed34f"/>
<rect x="149.12" y="47.2" width="19.84" height="34.4" fill="#b2dd2d"/>
<rect x="168.96" y="47.2" width="19.84" height="34.4" fill="#dae319"/>
<rect x="188.8" y="47.2" width="19.84" height="34.4" fill="#f4e61e"/>
<rect x="208.64" y="47.2" width="19.84" height="34.4" fill="#fde725"/>
<rect x="228.48" y="47.2" width="19.84" height="34.4" fill="#f8e621"/>
<rect x="248.32" y="47.2" width="19.84" height="34.4" fill="#e4e419"/>
<rect x="268.16" y="47.2" width="19.84" height="34.4" fill="#bfdf25"/>
<rect x="288" y="47.2" width="19.84" height="34.4" fill="#8dd645"/>
<rect x="307.84" y="47.2" width="19.84" height="34.4" fill="#57c766"/>
<rect x="327.68" y="47.2" width="19.84" height="34.4" fill="#2cb17e"/>
<rect x="347.52" y="47.2" width="19.84" height="34.4" fill="#1f978b"/>
<rect x="367.36" y="47.2" width="19.84" height="34.4" fill="#287d8e"/>
<rect x="387.2" y="47.2" width="19.84" height="34.4" fill="#33638d"/>
<rect x="407.04" y="47.2" width="19.84" height="34.4" fill="#3f4889"/>
<rect x="426.88" y="47.2" width="19.84" height="34.4" fill="#472f7d"/>
<rect x="446.72" y="47.2" width="19.84" height="34.4" fill="#481a6c"/>
<rect x="466.56" y="47.2" width="19.84" height="34.4" fill="#46095d"/>
<rect x="89.6" y="81.6" width="19.84" height="34.4" fill="#49c16d"/>
<rect x="109.44" y="81.6" width="19.84" height="34.4" fill="#7ed34f"/>
<rect x="129.28" y="81.6" width="19.84" height="34.4" fill="#b2dd2d"/>
<rect x="149.12" y="81.6" width="19.84" height="34.4" fill="#dae319"/>
<rect x="168.96" y="81.6" width="19.84" height="34.4" fill="#f4e61e"/>
<rect x="188.8" y="81.6" width="19.84" height="34.4" fill="#fde725"/>
<rect x="208.64" y="81.6" width="19.84" height="34.4" fill="#f8e621"/>
<rect x="228.48" y="81.6" width="19.84" height="34.4" fill="#e4e419"/>
<rect x="248.32" y="81.6" width="19.84" height="34.4" fill="#bfdf25"/>
<rect x="268.16" y="81.6" width="19.84" height="34.4" fill="#8dd645"/>
<rect x="288" y="81.6" width="19.84" height="34.4" fill="#57c766"/>
<rect x="307.84" y="81.6" width="19.84" height="34.4" fill="#2cb17e"/>
<rect x="327.68" y="81.6" width="19.84" height="34.4" fill="#1f978b"/>
<rect x="347.52" y="81.6" width="19.84" height="34.4" fill="#287d8e"/>
<rect x="367.36" y="81.6" width="19.84" height="34.4" fill="#33638d"/>
<rect x="387.2" y="81.6" width="19.84" height="34.4" fill="#3f4889"/>
<rect x="407.04" y="81.6" width="19.84" height="34.4" fill="#472f7d"/>
<rect x="426.88" y="81.6" width="19.84" height="34.4" fill="#481a6c"/>
<rect x="446.72" y="81.6" width="19.84" height="34.4" fill="#46095d"/>
<rect x="466.56" y="81.6" width="19.84" height="34.4" fill="#440154"/>
<rect x="89.6" y="116" width="19.84" height="34.4" fill="#7ed34f"/>
<rect x="109.44" y="116" width="19.84" height="34.4" fill="#b2dd2d"/>
<rect x="129.28" y="116" width="19.84" height="34.4" fill="#dae319"/>
<rect x="149.12" y="116" width="19.84" height="34.4" fill="#f4e61e"/>
<rect x="168.96" y="116" width="19.84" height="34.4" fill="#fde725"/>
<rect x="188.8" y="116" width="19.84" height="34.4" fill="#f8e621"/>
<rect x="208.64" y="116" width="19.84" height="34.4" fill="#e4e419"/>
<rect x="228.48" y="116" width="19.84" height="34.4" fill="#bfdf25"/>
<rect x="248.32" y="116" width="19.84" height="34.4" fill="#8dd645"/>
<rect x="268.16" y="116" width="19.84" height="34.4" fill="#57c766"/>
<rect x="288" y="116" width="19.84" height="34.4" fill="#2cb17e"/>
<rect x="307.84" y="116" width="19.84" height="34.4" fill="#1f978b"/>
<rect x="327.68" y="116" width="19.84" height="34.4" fill="#287d8e"/>
<rect x="347.52" y="116" width="19.84" height="34.4" fill="#33638d"/>
<rect x="367.36" y="116" width="19.84" height="34.4" fill="#3f4889"/>
<rect x="387.2" y="116" width="19.84" height="34.4" fill="#472f7d"/>
<rect x="407.04" y="116" width="19.84" height="34.4" fill="#481a6c"/>
<rect x="426.88" y="116" width="19.84" height="34.4" fill="#46095d"/>
<rect x="446.72" y="116" width="19.84" height="34.4" fill="#440154"/>
<rect x="466.56" y="116" width="19.84" height="34.4" fill="#440155"/>
<rect x="89.6" y="150.4" width="19.84" height="34.4" fill="#b2dd2d"/>
<rect x="109.44" y="150.4" width="19.84" height="34.4" fill="#dae319"/>
<rect x="129.28" y="150.4" width="19.84" height="34.4" fill="#f4e61e"/>
<rect x="149.12" y="150.4" width="19.84" height="34.4" fill="#fde725"/>
<rect x="168.96" y="150.4" width="19.84" height="34.4" fill="#f8e621"/>
<rect x="188.8" y="150.4" width="19.84" height="34.4" fill="#e4e419"/>
<rect x="208.64" y="150.4" width="19.84" height="34.4" fill="#bfdf25"/>
<rect x="228.48" y="150.4" width="19.84" height="34.4" fill="#8dd645"/>
<rect x="248.32" y="150.4" width="19.84" height="34.4" fill="#57c766"/>
<rect x="268.16" y="150.4" width="19.84" height="34.4" fill="#2cb17e"/>
<rect x="288" y="150.4" width="19.84" height="34.4" fill="#1f978b"/>
<rect x="307.84" y="150.4" width="19.84" height="34.4" fill="#287d8e"/>
<rect x="327.68" y="150.4" width="19.84" height="34.4" fill="#33638d"/>
<rect x="347.52" y="150.4" width="19.84" height="34.4" fill="#3f4889"/>
<rect x="367.36" y="150.4" width="19.84" height="34.4" fill="#472f7d"/>
<rect x="387.2" y="150.4" width="19.84" height="34.4" fill="#481a6c"/>
<rect x="407.04" y="150.4" width="19.84" height="34.4" fill="#46095d"/>
<rect x="426.88" y="150.4" width="19.84" height="34.4" fill="#440154"/>
<rect x="446.72" y="150.4" width="19.84" height="34.4" fill="#440155"/>
<rect x="466.56" y="150.4" width="19.84" height="34.4" fill="#460b5e"/>
<rect x="89.6" y="184.8" width="19.84" height="34.4" fill="#dae319"/>
<rect x="109.44" y="184.8" width="19.84" height="34.4" fill="#f4e61e"/>
<rect x="129.28" y="184.8" width="19.84" height="34.4" fill="#fde725"/>
<rect x="149.12" y="184.8" width="19.84" height="34.4" fill="#f8e621"/>
<rect x="168.96" y="184.8" width="19.84" height="34.4" fill="#e4e419"/>
<rect x="188.8" y="184.8" width="19.84" height="34.4" fill="#bfdf25"/>
<rect x="208.64" y="184.8" width="19.84" height="34.4" fill="#8dd645"/>
<rect x="228.48" y="184.8" width="19.84" height="34.4" fill="#57c766"/>
<rect x="248.32" y="184.8" width="19.84" height="34.4" fill="#2cb17e"/>
<rect x="268.16" y="184.8" width="19.84" height="34.4" fill="#1f978b"/>
<rect x="288" y="184.8" width="19.84" height="34.4" fill="#287d8e"/>
<rect x="307.84" y="184.8" width="19.84" height="34.4" fill="#33638d"/>
<rect x="327.68" y="184.8" width="19.84" height="34.4" fill="#3f4889"/>
<rect x="347.52" y="184.8" width="19.84" height="34.4" fill="#472f7d"/>
<rect x="367.36" y="184.8" width="19.84" height="34.4" fill="#481a6c"/>
<rect x="387.2" y="184.8" width="19.84" height="34.4" fill="#46095d"/>
<rect x="407.04" y="184.8" width="19.84" height="34.4" fill="#440154"/>
<rect x="426.88" y="184.8" width="19.84" height="34.4" fill="#440155"/>
<rect x="446.72" y="184.8" width="19.84" height="34.4" fill="#460b5e"/>
<rect x="466.56" y="184.8" width="19.84" height="34.4" fill="#481c6e"/>
<rect x="89.6" y="219.2" width="19.84" height="34.4" fill="#f4e61e"/>
<rect x="109.44" y="219.2" width="19.84" height="34.4" fill="#fde725"/>
<rect x="129.28" y="219.2" width="19.84" height="34.4" fill="#f8e621"/>
<rect x="149.12" y="219.2" width="19.84" height="34.4" fill="#e4e419"/>
<rect x="168.96" y="219.2" width="19.84" height="34.4" fill="#bfdf25"/>
<rect x="188.8" y="219.2" width="19.84" height="34.4" fill="#8dd645"/>
<rect x="208.64" y="219.2" width="19.84" height="34.4" fill="#57c766"/>
<rect x="228.48" y="219.2" width="19.84" height="34.4" fill="#2cb17e"/>
<rect x="248.32" y="219.2" width="19.84" height="34.4" fill="#1f978b"/>
<rect x="268.16" y="219.2" width="19.84" height="34.4" fill="#287d8e"/>
<rect x="288" y="219.2" width="19.84" height="34.4" fill="#33638d"/>
<rect x="307.84" y="219.2" width="19.84" height="34.4" fill="#3f4889"/>
<rect x="327.68" y="219.2" width="19.84" height="34.4" fill="#472f7d"/>
<rect x="347.52" y="219.2" width="19.84" height="34.4" fill="#481a6c"/>
<rect x="367.36" y="219.2" width="19.84" height="34.4" fill="#46095d"/>
<rect x="387.2" y="219.2" width="19.84" height="34.4" fill="#440154"/>
<rect x="407.04" y="219.2" width="19.84" height="34.4" fill="#440155"/>
<rect x="426.88" y="219.2" width="19.84" height="34.4" fill="#460b5e"/>
<rect x="446.72" y="219.2" width="19.84" height="34.4" fill="#481c6e"/>
<rect x="466.56" y="219.2" width="19.84" height="34.4" fill="#46337f"/>
<rect x="89.6" y="253.6" width="19.84" height="34.4" fill="#fde725"/>
<rect x="109.44" y="253.6" width="19.84" height="34.4" fill="#f8e621"/>
<rect x="129.28" y="253.6" width="19.84" height="34.4" fill="#e4e419"/>
<rect x="149.12" y="253.6" width="19.84" height="34.4" fill="#bfdf25"/>
<rect x="168.96" y="253.6" width="19.84" height="34.4" fill="#8dd645"/>
<rect x="188.8" y="253.6" width="19.84" height="34.4" fill="#57c766"/>
<rect x="208.64" y="253.6" width="19.84" height="34.4" fill="#2cb17e"/>
<rect x="228.48" y="253.6" width="19.84" height="34.4" fill="#1f978b"/>
<rect x="248.32" y="253.6" width="19.84" height="34.4" fill="#287d8e"/>
<rect x="268.16" y="253.6" width="19.84" height="34.4" fill="#33638d"/>
<rect x="288" y="253.6" width="19.84" height="34.4" fill="#3f4889"/>
<rect x="307.84" y="253.6" width="19.84" height="34.4" fill="#472f7d"/>
<rect x="327.68" y="253.6" width="19.84" height="34.4" fill="#481a6c"/>
<rect x="347.52" y="253.6" width="19.84" height="34.4" fill="#46095d"/>
<rect x="367.36" y="253.6" width="19.84" height="34.4" fill="#440154"/>
<rect x="387.2" y="253.6" width="19.84" height="34.4" fill="#440155"/>
<rect x="407.04" y="253.6" width="19.84" height="34.4" fill="#460b5e"/>
<rect x="426.88" y="253.6" width="19.84" height="34.4" fill="#481c6e"/>
<rect x="446.72" y="253.6" width="19.84" height="34.4" fill="#46337f"/>
<rect x="466.56" y="253.6" width="19.84" height="34.4" fill="#3d4d8a"/>
</svg>
