<svg xmlns="http://www.w3.org/2000/svg" viewBox="0 0 640 320" width="640" height="320">
<rect width="100%" height="100%" fill="#141414"/>
<line x1="89.6" y1="12.8" x2="89.6" y2="288" stroke="#2c2c2c" stroke-width="1"/>
<line x1="89.6" y1="288" x2="486.4" y2="288" stroke="#2c2c2c" stroke-width="1"/>
<line x1="486.4" y1="12.8" x2="486.4" y2="288" stroke="#2c2c2c" stroke-width="1"/>
<line x1="89.6" y1="12.8" x2="486.4" y2="12.8" stroke="#2c2c2c" stroke-width="1"/>
<text x="89.6" y="300" text-anchor="middle" font-size="12" font-family="monospace" fill="#626262">0</text>
<text x="188.8" y="300" text-anchor="middle" font-size="12" font-family="monospace" fill="#626262">2</text>
<text x="288" y="300" text-anchor="middle" font-size="12" font-family="monospace" fill="#626262">4</text>
<text x="387.2" y="300" text-anchor="middle" font-size="12" font-family="monospace" fill="#626262">6</text>
<text x="486.4" y="300" text-anchor="middle" font-size="12" font-family="monospace" fill="#626262">8</text>
<clipPath id="isvgb-0"><rect x="0" y="69.6" width="83.6" height="24"/></clipPath>
<text x="83.6" y="85.6" text-anchor="end" clip-path="url(#isvgb-0)" font-size="12" font-family="monospace" fill="#626262">bimodal</text>
<clipPath id="isvgb-1"><rect x="0" y="207.2" width="83.6" height="24"/></clipPath>
<text x="83.6" y="223.2" text-anchor="end" clip-path="url(#isvgb-1)" font-size="12" font-family="monospace" fill="#626262">uniform</text>
<path d="M104.48 114.564 L108.688 118.635 L112.897 122.709 L117.105 126.682 L121.314 130.448 L125.522 133.898 L129.731 136.926 L133.939 139.439 L138.148 141.357 L142.356 142.622 L146.565 143.2 L150.773 143.08 L154.982 142.282 L159.19 140.849 L163.399 138.847 L167.607 136.362 L171.816 133.493 L176.024 130.348 L180.233 127.038 L184.441 123.67 L188.65 120.344 L192.858 117.146 L197.067 114.148 L201.275 111.406 L205.484 108.959 L209.692 106.831 L213.901 105.031 L218.109 103.558 L222.318 102.404 L226.526 101.555 L230.735 100.997 L234.943 100.717 L239.152 100.706 L243.36 100.961 L247.568 101.482 L251.777 102.276 L255.985 103.353 L260.194 104.724 L264.402 106.399 L268.611 108.382 L272.819 110.671 L277.028 113.251 L281.236 116.095 L285.445 119.159 L289.653 122.383 L293.862 125.693 L298.07 128.999 L302.279 132.201 L306.487 135.195 L310.696 137.871 L314.904 140.126 L319.113 141.868 L323.321 143.019 L327.53 143.52 L331.738 143.339 L335.947 142.466 L340.155 140.922 L344.364 138.748 L348.572 136.012 L352.781 132.797 L356.989 129.202 L361.198 125.333 L365.406 121.299 L369.615 117.205 L373.823 113.15 L378.032 109.22 L382.24 105.488 L386.448 102.011 L390.657 98.83 L394.865 95.968 L399.074 93.437 L403.282 91.233 L407.491 89.345 L411.699 87.751 L411.699 75.449 L407.491 73.855 L403.282 71.967 L399.074 69.763 L394.865 67.232 L390.657 64.37 L386.448 61.189 L382.24 57.712 L378.032 53.98 L373.823 50.05 L369.615 45.995 L365.406 41.901 L361.198 37.867 L356.989 33.998 L352.781 30.403 L348.572 27.188 L344.364 24.452 L340.155 22.278 L335.947 20.734 L331.738 19.861 L327.53 19.68 L323.321 20.181 L319.113 21.332 L314.904 23.074 L310.696 25.329 L306.487 28.005 L302.279 30.999 L298.07 34.201 L293.862 37.507 L289.653 40.817 L285.445 44.041 L281.236 47.105 L277.028 49.949 L272.819 52.529 L268.611 54.818 L264.402 56.801 L260.194 58.476 L255.985 59.847 L251.777 60.924 L247.568 61.718 L243.36 62.239 L239.152 62.494 L234.943 62.483 L230.735 62.203 L226.526 61.645 L222.318 60.796 L218.109 59.642 L213.901 58.169 L209.692 56.369 L205.484 54.241 L201.275 51.794 L197.067 49.052 L192.858 46.054 L188.65 42.856 L184.441 39.53 L180.233 36.162 L176.024 32.852 L171.816 29.707 L167.607 26.838 L163.399 24.353 L159.19 22.351 L154.982 20.918 L150.773 20.12 L146.565 20 L142.356 20.578 L138.148 21.843 L133.939 23.761 L129.731 26.274 L125.522 29.302 L121.314 32.752 L117.105 36.518 L112.897 40.491 L108.688 44.565 L104.48 48.636 Z" fill="#e69f00" fill-opacity="0.85" stroke="#e69f00" stroke-width="2"/>
<path d="M139.2 81.6 L337.6 81.6" fill="none" stroke="#141414" stroke-width="2"/>
<rect x="146.64" y="75.408" width="183.52" height="12.384" fill="#141414"/>
<circle cx="248.32" cy="81.6" r="2.7" fill="#d4d4d4"/>
<polygon points="238.648,79.2 241.048,81.6 238.648,84 236.248,81.6" fill="#d4d4d4" stroke="#626262" stroke-width="0.75"/>
<path d="M104.48 233.493 L108.688 234.314 L112.897 235.14 L117.105 235.967 L121.314 236.791 L125.522 237.611 L129.731 238.421 L133.939 239.219 L138.148 240.003 L142.356 240.768 L146.565 241.514 L150.773 242.236 L154.982 242.933 L159.19 243.604 L163.399 244.246 L167.607 244.858 L171.816 245.439 L176.024 245.989 L180.233 246.507 L184.441 246.994 L188.65 247.448 L192.858 247.871 L197.067 248.262 L201.275 248.624 L205.484 248.957 L209.692 249.261 L213.901 249.539 L218.109 249.791 L222.318 250.019 L226.526 250.224 L230.735 250.409 L234.943 250.573 L239.152 250.72 L243.36 250.849 L247.568 250.964 L251.777 251.064 L255.985 251.152 L260.194 251.229 L264.402 251.295 L268.611 251.352 L272.819 251.401 L277.028 251.442 L281.236 251.477 L285.445 251.506 L289.653 251.53 L293.862 251.549 L298.07 251.563 L302.279 251.574 L306.487 251.581 L310.696 251.584 L314.904 251.584 L319.113 251.581 L323.321 251.574 L327.53 251.563 L331.738 251.549 L335.947 251.53 L340.155 251.506 L344.364 251.477 L348.572 251.442 L352.781 251.401 L356.989 251.352 L361.198 251.295 L365.406 251.229 L369.615 251.152 L373.823 251.064 L378.032 250.964 L382.24 250.849 L386.448 250.72 L390.657 250.573 L394.865 250.409 L399.074 250.224 L403.282 250.019 L407.491 249.791 L411.699 249.539 L415.908 249.261 L420.116 248.957 L424.325 248.624 L428.533 248.262 L432.742 247.871 L436.95 247.448 L441.159 246.994 L445.367 246.507 L449.576 245.989 L453.784 245.439 L457.993 244.858 L462.201 244.246 L466.41 243.604 L470.618 242.933 L474.827 242.236 L479.035 241.514 L483.244 240.768 L486.4 240.003 L486.4 239.219 L486.4 238.421 L486.4 237.611 L486.4 236.791 L486.4 235.967 L486.4 235.14 L486.4 234.314 L486.4 233.493 L486.4 204.907 L486.4 204.086 L486.4 203.26 L486.4 202.433 L486.4 201.609 L486.4 200.789 L486.4 199.979 L486.4 199.181 L486.4 198.397 L483.244 197.632 L479.035 196.886 L474.827 196.164 L470.618 195.467 L466.41 194.796 L462.201 194.154 L457.993 193.542 L453.784 192.961 L449.576 192.411 L445.367 191.893 L441.159 191.406 L436.95 190.952 L432.742 190.529 L428.533 190.138 L424.325 189.776 L420.116 189.443 L415.908 189.139 L411.699 188.861 L407.491 188.609 L403.282 188.381 L399.074 188.176 L394.865 187.991 L390.657 187.827 L386.448 187.68 L382.24 187.551 L378.032 187.436 L373.823 187.336 L369.615 187.248 L365.406 187.171 L361.198 187.105 L356.989 187.048 L352.781 186.999 L348.572 186.958 L344.364 186.923 L340.155 186.894 L335.947 186.87 L331.738 186.851 L327.53 186.837 L323.321 186.826 L319.113 186.819 L314.904 186.816 L310.696 186.816 L306.487 186.819 L302.279 186.826 L298.07 186.837 L293.862 186.851 L289.653 186.87 L285.445 186.894 L281.236 186.923 L277.028 186.958 L272.819 186.999 L268.611 187.048 L264.402 187.105 L260.194 187.171 L255.985 187.248 L251.777 187.336 L247.568 187.436 L243.36 187.551 L239.152 187.68 L234.943 187.827 L230.735 187.991 L226.526 188.176 L222.318 188.381 L218.109 188.609 L213.901 188.861 L209.692 189.139 L205.484 189.443 L201.275 189.776 L197.067 190.138 L192.858 190.529 L188.65 190.952 L184.441 191.406 L180.233 191.893 L176.024 192.411 L171.816 192.961 L167.607 193.542 L163.399 194.154 L159.19 194.796 L154.982 195.467 L150.773 196.164 L146.565 196.886 L142.356 197.632 L138.148 198.397 L133.939 199.181 L129.731 199.979 L125.522 200.789 L121.314 201.609 L117.105 202.433 L112.897 203.26 L108.688 204.086 L104.48 204.907 Z" fill="#56b4e9" fill-opacity="0.85" stroke="#56b4e9" stroke-width="2"/>
<path d="M139.2 219.2 L486.4 219.2" fill="none" stroke="#141414" stroke-width="2"/>
<rect x="238.4" y="213.008" width="198.4" height="12.384" fill="#141414"/>
<circle cx="337.6" cy="219.2" r="2.7" fill="#d4d4d4"/>
<polygon points="312.8,216.8 315.2,219.2 312.8,221.6 310.4,219.2" fill="#d4d4d4" stroke="#626262" stroke-width="0.75"/>
</svg>
